<svg version="1.2" xmlns="http://www.w3.org/2000/svg" viewBox="0 0 2300 2300" width="150" height="150">
	<title>sarmi1-02-svg-svg</title>
	<style>
		.s0 { fill: #6fa744 }
		.s1 { fill: #6fa745 }
		.s2 { fill: #8dc641 }
	</style>
	<path class="s0" d="m995.1 97.7q3 0.2 5.9 0.3 0.5-0.5 1-1c2.7-0.1 5.3 0 8 0q0.5 1 1 2c2.7 0.3 5.3 0.5 7.9 0.6 7.9 0.3 7.9 0.3 10.1 1.4q2 0.2 4 0.3 1.2 0.1 2.4 0.1 1.3 0.1 2.5 0.2 1.3 0 2.5 0.1 4.8 0.3 9.6 0.3 0 1 0 2c4.3 0.3 8.6 0.7 13 1q0-1 0-2-1.5-0.5-3-1c2.3 0 4.6 0 7 0q-0.5 1.5-1 3 5.1 1.2 10.2 2.4 1.5 0.3 2.9 0.6c4.9 1.2 9.7 2.2 14.7 2.9 8 1.3 15.8 3.6 23.7 5.8q2.9 0.8 5.9 1.6 1.7 0.5 3.5 1c2.8 0.6 5.2 0.7 8.1 0.7q2.6 1 5.1 2.1c3.5 1.6 7.2 2.7 10.9 3.9q3.1 1 6.1 2.1 6.5 2.1 12.9 3.9 0 1 0 2c2.6 0 5.3 0 8 0q0 1 0 2 1.8 0.6 3.7 1.2c5.1 1.7 10.1 3.6 15.2 5.6 2.6 1 5.1 1.9 7.8 2.7 4.1 1.3 7.9 3.2 11.7 5.2 4.1 2.1 8.4 3.7 12.6 5.3q2.5 1 5 2 0 1 0 2 2.5 0 5 0 0 1 0 2c1.5 0.3 1.5 0.3 3 0.7 5.3 1.5 9.7 4.4 14.3 7.3q1 0.6 2.1 1.2c0.9 0.6 0.9 0.6 1.8 1.1 2.3 0.9 3.5 0.5 5.8-0.3q0 1.5 0 3 1.1 0.4 2.2 0.8c2.7 1.1 4.7 2.4 7 4 4.7 3.2 9.6 5.8 14.8 8.2q0 1 0 2 0.9 0.2 1.8 0.4c3.5 1 6.4 2.9 9.4 4.8q1.1 0.6 2.1 1.2c3.6 2.2 7 4.5 10.3 7.2 2.6 2.1 3.3 2.4 6.9 2.8q1.2-0.2 2.5-0.4 0.2 0.9 0.3 1.8c0.8 2.5 1.7 3.5 3.7 5.2q1.5 0.5 3 1 0 1 0 2c2.3 0.3 4.6 0.7 7 1q0.5 2.5 1 5 2.5 0 5 0 0 1 0 2 1.5 0.5 3 1 2 1 4 2-0.5 1.5-1 3 2.5-0.5 5-1c0.1 0.9 0.1 0.9 0.2 1.7 1.5 4.1 5.3 6 8.8 8.3q0.7 0.8 1.5 1.6c1.6 1.7 1.6 1.7 4.5 2.4q0.5 1.5 1 3c2.6 2.3 3.5 3 7 3q0.5 2.5 1 5 0.8 0.1 1.7 0.2c3.2 1.1 4.9 3.3 7.3 5.8q1.4 0.8 2.7 1.6c2.3 1.4 2.3 1.4 3.3 4.4q2.5 2.2 5.2 4.2c4.5 3.7 8.2 7.3 11.8 11.8q2 2 4 4c5.7 5.6 11.2 11.5 16.2 17.7 1.6 2.4 1.6 2.4 3.8 3.3q0 1.5 0 3 0.9 0 1.7 0.1c3.1 1.2 3.8 3.3 5.3 6.1 1.3 2.4 3.1 4 5 5.8q0.9 1.4 1.9 2.9c1.7 2.6 2.9 3.8 5.2 5.7 3 2.5 3.6 3.8 4.9 7.4q2 2.5 4 5 1.5 2.2 2.9 4.5c1.8 2.7 3.6 5.1 5.9 7.4 2.2 2.1 2.2 2.1 3.2 5.1q1 1 2 2c1.7 3.2 3.4 6.5 5.1 9.7 1.9 3.4 4.1 5.7 6.9 8.3 1.2 2.3 1.5 4.5 2 7 0.8 3.1 0.8 3.1 3 5 1.3 2.9 2 4.8 2 8q1 0.5 2 1 0.5 2 1 4 1 1 2 2 0 1 0 2 1.5 3.5 3 7c0.4 1.3 0.7 2.7 1 4q1-0.5 2-1 0 1.5 0 3-1 0-2 0 0.5 1.1 1 2.3c1 2.7 1 2.7 1 5.7q1 0.5 2 1c0 2.3 0 4.6 0 7q1 0.5 2 1c0.7 2.7 0.7 2.7 1.2 6.3q0.2 1 0.3 2 0.5 3.1 1 6.2 0.6 4 1.3 8.1 0.3 1.9 0.6 3.9c0.5 2.8 1 5.5 1.7 8.2 1.2 5.3 1.6 10.5 2 15.9q0.1 1.6 0.3 3.2c1.1 14.8 0.4 28.7-1.3 43.4-0.9 7-0.9 7-1.1 14.1q0 1.3 0 2.7-0.5 0.5-1 1-0.5 2.6-0.9 5.2-0.2 1.6-0.5 3.3-0.2 1.8-0.5 3.6c-2.1 13.8-4.2 27.3-8.2 40.7-0.8 2.9-1.4 5.7-2 8.7-0.7 3.9-2 7-3.9 10.5q-0.2 1.1-0.4 2.3c-0.7 3.1-1.8 5.9-3 8.9-2.3 5.9-4.4 11.8-6.2 17.8-1.9 5.9-4.3 11.6-6.9 17.2-1.7 3.9-3.2 7.8-4.5 11.8q-0.9 2-2 4-1.7 3.4-3.4 6.8c-0.5 0.9-0.5 0.9-0.9 1.8-4.3 8.4-4.3 8.4-6.7 17.4q-1.5 0.5-3 1 0 1.5 0 3-1 0-2 0-0.4 1.1-0.8 2.1c-2.2 5.3-5.2 10.2-8 15.1q-0.9 1.7-1.8 3.4c-3.2 5.6-6.4 11.1-10.1 16.5-1.7 2.6-3 5.3-4.4 8.1-1.3 2.5-3 4.7-4.9 6.8q1 0.5 2 1-1 0-2 0-0.5 1.5-1 3c-2.1 1.7-2.1 1.7-4 3q0.5 1 1 2-1 0-2 0 0 1.5 0 3-1 0-2 0-0.4 0.9-0.9 1.8c-1.1 2.2-1.1 2.2-3.1 5.2q-0.5 1-1 2-1 1-2 1.9c-2.2 2-2.2 2-3 5.1q-1 0-2 0-0.4 0.8-0.8 1.7c-3.3 6.5-6.7 12.5-12.2 17.3q0.5 1 1 2-0.8 0.6-1.5 1.2c-4.9 3.9-8 7.8-11.1 13.3-3.4 5.9-7.5 10.8-12.4 15.5-1.7 2.6-2.4 4-3 7q-1.5 0-3 0-0.5 1.5-1 3-1 0.7-2.1 1.4c-2.2 1.5-2.2 1.5-2.2 4.3 0.2 1.1 0.2 1.1 0.3 2.3q-1.1 0.4-2.3 0.7c-3 1.4-4.6 2.7-6.7 5.3q0 2 0 4-1.5 0.5-3 1c-4.6 4.1-8.5 8.9-12 14q0 1 0 2c-2 1.8-4.1 3.5-6.2 5.1-2 2.1-2.2 3.2-2.8 5.9-1.4 1.4-1.4 1.4-3.1 2.7-7.1 5.8-12.2 13-17.6 20.3-2.8 3.6-5.8 7-8.9 10.3-1.6 1.6-1.6 1.6-1.4 3.7q-2 2-4 4-1.5 1.7-2.9 3.4c-1.9 2.3-3.8 4.3-5.9 6.3-2.4 2.2-2.4 2.2-3.2 5.3-2.3 2.5-4.8 4.8-7.3 7.1-2.1 2-2.1 2-1.7 5.9q-2.5 1.5-5 3-1 2.5-2 5-2.5 2-5 4c-1.3 2.1-1.3 2.1-2 4q-1 0-2 0-0.1 1.4-0.3 2.9c-0.3 1.5-0.3 1.5-0.7 3.1-1.9 1.1-1.9 1.1-4 2q-1.1 2.5-2 5-1 0.5-2 1 1 1 2 2c-1.4 0.6-1.4 0.6-2.9 1.3-3.3 1.5-3.3 1.5-5.1 4.7q1 1 2 2-2.5 1-5 2 0 1.5 0 3c-1.4 1.7-1.4 1.7-3 3q-1 0-2 0 0 2 0 4-2.4 2.6-5 5c-2.5 3.7-2.5 3.7-3 8q-1 0-2 0-0.1 0.9-0.3 1.7c-0.9 3-2.5 4.1-4.7 6.3-4.2 6-8.4 12.8-10 20q-1 0-2 0-0.3 1.3-0.7 2.6c-1.2 3.2-2.8 5.5-4.9 8.3-3.4 5.1-6.1 10.9-8.4 16.7-1.4 3.4-3.2 6.7-4.9 10-1.1 2.3-1.1 2.3-1.6 4.3-0.8 3.1-2.2 5.9-3.6 8.8q-0.8 1.8-1.6 3.6c-0.7 1.3-0.7 1.3-1.3 2.7q1 0 2 0 0 1 0 2-1.5 0.5-3 1c-1.3 2.9-1.3 2.9-2 6q0.5 1 1 2c-0.9 2.1-0.9 2.1-2 4q-1 0-2 0 0 1 0 2 1.5 0.5 3 1 0 1 0 2-1.5 0-3 0c-2.8 7.2-5.1 14.5-7 22q-1.5-0.5-3-1c-0.8-2-0.8-2-1.4-4.5-1.2-4.6-3-8.3-5.5-12.3-1.4-2.7-1.6-5.2-2.1-8.2q-1.1-3.4-2.4-6.7-0.7-1.7-1.3-3.4c-1.2-3-1.2-3-3.3-5.9-0.8-2.9-1.5-5.9-2.1-8.9-0.8-3.1-0.8-3.1-2.3-6-1.9-3.7-3-7.5-4.1-11.5-1.2-4.2-2.4-8.4-4-12.5-1.8-4.8-3.2-9.8-4.6-14.8q-0.4-1.4-0.8-2.8c-1.2-4.1-2.3-8.3-3.1-12.5q-1.5 0.5-3 1 0-1 0-2 1 0 2 0-1.6-6.1-3.3-12.1-0.4-1.8-0.9-3.7c-1.6-5.8-3.2-11.5-4.9-17.3-2.2-7.4-3.6-15-5.1-22.7-1-5.2-2.1-10.4-3.4-15.5-1.1-4.4-1.9-8.6-2.5-13.1-0.5-4.7-0.5-4.7-2-9-1.2-3.5-1.1-6.8-1-10.4q0-1 0-2.1 0-2.6 0.1-5.1-1-0.5-2-1c-0.5-2.7-0.5-2.7-0.8-6.2q-0.2-2-0.4-3.9-0.2-2.2-0.4-4.3-0.2-2.1-0.4-4.2c-0.7-8.6-1.4-17.1-1.7-25.7-0.1-2.8-0.2-5.5-0.8-8.2-0.7-5.1-0.6-10.2-0.6-15.3 0-1.7 0-1.7 0-3.5q0-3.6 0-7.1 0-5.6 0-11.1 0-3.5 0-6.9 0-1.7 0-3.4 0-1.5 0-3.1c0-1.3 0-1.3 0-2.7 0.1-2.3 0.5-4.2 1.1-6.4q0.2-2.6 0.3-5.3 0.1-1.5 0.1-3.1c0.1-1.6 0.1-1.6 0.2-3.2q0-1.6 0.1-3.2 0.4-9.6 0.3-19.2 0.5 0 1 0c0-2.6 0-5.3 0-8q0.5 0 1 0c1.2-8 2.3-15.6 2-23.7 0-4 0.8-6 3-9.3q0.7-3.3 1.2-6.7 0.2-1 0.3-2 0.5-3.2 1-6.4 0.6-4.1 1.3-8.2 0.1-1 0.3-2.1c1-6.5 2.1-13 4-19.4 0.8-2.9 1.1-5.2 0.9-8.2q1 0 2 0 0.2-1.5 0.3-3.1c0.5-4.2 1.3-8.4 2.1-12.6q0.4-1.9 0.8-3.8c0.7-3 1.6-5.6 2.8-8.5q0.5-2.5 1-5c2.1-8.5 4.5-16.8 7.1-25.1q2.1-6.3 3.8-12.8c1.8-6.3 3.9-12.6 6.1-18.8 1.5-4.4 2.5-8.6 3-13.3q1.5-0.5 3-1 0.2-1.7 0.3-3.5c0.6-4.5 1.8-8.7 3.3-13q0.3-1.1 0.7-2.2 0.8-2.7 1.7-5.3 1 0 2 0 0.1-1.5 0.2-3.1c0.7-5.5 2.6-10.4 4.5-15.5q1.6-4.4 3-8.7c1.3-3.7 1.3-3.7 3.3-4.7q0.5-3 1-6c0.9-2.8 2-5.5 3.1-8.3 2.1-4.7 2.1-4.7 2.9-9.7q1 0 2 0 0.2-1.2 0.3-2.5c0.6-2.8 1.2-5 2.3-7.6 1-2.5 1.4-3.9 1.4-6.7q0-1.1 0-2.2 0.7-0.7 1.4-1.3c2.4-2.6 2.5-5.4 3-8.7 0.3-1 0.3-1 0.6-2q1.5-0.5 3-1 0.1-1.6 0.2-3.2c0.7-5.2 2.3-10 4-14.9 0.9-2.9 0.9-2.9 0.8-5.9q1.5 0 3 0 0.2-1.7 0.3-3.4c0.5-4.1 1.6-8 2.7-12.1 3.2-11.4 5-22.9 6.4-34.7 0.1-1.1 0.1-1.1 0.2-2.2 1.6-14 1.7-27.4-0.1-41.4q-0.4-3-0.8-6.1c-0.9-6.8-2-12.8-4.7-19.1q-0.6-2.2-1.2-4.4c-3.4-11.5-9.3-22.6-15.8-32.6q-2 0.5-4 1 0 1.5 0 3 1 1 2 2 0 3 0 6 0.6 3 1.4 5.9c1.9 7.6 4.1 17.6 1.6 25.1q1 0.5 2 1c0.2 7.5-0.4 14.8-1.1 22.2q-0.3 3-0.6 6.1c-0.8 8.4-2.2 16.5-4.3 24.7q-0.5 2-1 4-0.8 3.2-1.5 6.4c-0.8 2.6-0.8 2.6 0.5 4.6q-1 0-2 0-0.2 1.1-0.4 2.2c-0.9 5.1-1.8 9.9-3.6 14.8q-0.2 0.8-0.4 1.7c-1 3.9-2.4 7.7-3.7 11.5-1.1 3.2-2 6.3-2.9 9.5-0.8 2.7-1.7 5-2.9 7.5-2.1 4.5-3.6 9.2-5.2 13.9q-1.2 3.7-2.7 7.5c-1.4 3.3-1.4 3.3-1.2 6.4q-1 0.5-2 1-1.4 3.1-2.6 6.3-0.6 1.7-1.3 3.5c-1.1 3-1.1 3-1.6 5.3-0.6 2.4-1.7 4.5-2.9 6.7-2 4-3.9 8-5.6 12.2-2.4 5.7-5 11.2-7.6 16.8-1.3 3-2.4 6.1-3.4 9.2q-1.2 2.7-2.4 5.3c-2 4.2-3.6 8.4-4.8 12.8-0.9 2.2-2.1 3.2-3.8 4.9-1.2 2.1-1.2 2.1-2.1 4.4q-0.5 1.2-1 2.3c-0.8 2.1-1.4 4.1-1.9 6.3q-1 0-2 0c-0.7 3-1.3 5.9-2 9q-1 0-2 0c0.3 2.3 0.7 4.6 1 7-0.9 0.1-0.9 0.1-1.8 0.2-2.4 0.6-2.4 0.6-3.5 3q-0.6 1.4-1.2 2.8-0.6 1.5-1.3 3-0.6 1.5-1.2 3-1.2 2.5-2.3 5c-1.3 2.7-1.7 3.9-1.7 7q-1 0.5-2 1c-0.2 0.8-0.2 0.8-0.4 1.6-0.7 2.8-2 4.9-3.5 7.3-2.1 3.9-3.5 8-5.1 12.1q1 1 2 2-1 0.3-1.9 0.6c-2.5 1.3-2.5 1.3-2.7 4.5q-0.2 1.4-0.4 2.9-1 0.5-2 1c-1.1 2.3-1.9 4.5-2.4 6.9-0.6 2.1-0.6 2.1-2.5 4.8-2.5 4-3.3 7.7-4.1 12.3q-1 0-2 0 0.5 2.5 1 5-1.5 1-3 2c-1.1 2.2-1.1 2.2-2 4.7q-1.7 4.5-3.6 9c-1.4 3.4-2.4 6.8-3.4 10.3q-1 2-2 4-0.5 2.5-1 5-0.6 1.3-1.1 2.7-0.5 1.1-0.9 2.3 0.5 1 1 2-1.5 1-3 2c-1.1 2.3-1.1 2.3-2 5-0.5 1.5-0.5 1.5-1 3-1.2 3.5-2.2 7.1-3.3 10.7-0.7 2.3-0.7 2.3-2.3 5.8-1.5 3.7-2.2 7.1-2.9 11-0.8 3.7-2.1 7-3.5 10.5q1 0.5 2 1-0.7 0.8-1.4 1.7c-1.8 2.6-2.1 4.3-2.6 7.3q-1.5 5.3-3.1 10.6c-0.8 3-1.1 5.3-0.9 8.4q1-0.5 2-1-0.5 2-1 4-1.5 0-3 0-0.2 1.3-0.4 2.6c-1.5 10.4-1.5 10.4-2.7 14.6-0.9 3.8-0.9 6.9-0.8 10.7-0.1 2.9-1.1 5.4-2.1 8.1-1 6.2-1.1 12.2-1.1 18.5 0 1.4 0 1.4 0.1 2.8q0 3.3 0 6.7-1.5 0-3 0 0.1 1.2 0.3 2.5c0.1 1.6 0.1 1.6 0.3 3.2q0.1 1.6 0.3 3.3c0.1 3 0.1 3-0.4 4.9-0.5 2.2-0.6 4.1-0.6 6.4q0 1.3 0 2.6c0 1.3 0 1.3 0 2.7q0 1.4 0 2.8c0.1 17.1 1.6 33.7 4.1 50.6 0.3 1.8 0.3 1.8 0.5 3.7 0.9 5.8 2.2 11.5 3.6 17.2 1.3 5.6 2.3 11.2 3.3 16.8 2.1 11.1 4.5 22 7.2 32.8 2.1 8.3 4 16.5 5.9 24.9q0.8 3.4 1.5 6.9c1.8 7.6 3.4 15.3 4.7 23q0.2 1.1 0.4 2.1c0.7 3.6 1 7 0.9 10.6q1 0.5 2 1 0.1 2.7 0.1 5.4 0.1 1.5 0.1 3c-0.2 2.6-0.2 2.6-2.2 4.6-2-3-2-3-2-7q-0.9-0.5-1.9-0.9-2-1.1-4.1-2.1 0-1 0-2-2-0.5-4-1 0-1 0-2-0.9-0.2-1.9-0.3c-2.1-0.7-2.1-0.7-4.1-3.7-2.1-0.7-2.1-0.7-4-1q0.5-1.5 1-3-0.8-0.4-1.7-0.8c-2.7-1.4-5-3.1-7.3-5.2q0-1 0-2-1.2-0.1-2.4-0.3-1.3-0.3-2.6-0.7-1.1-2-2-4-2.5-1.5-5-3 0-1 0-2-2.5-2-5-4-2.5-2.5-5-5-1-0.5-2-1-0.6-1.1-1.3-2.3c-1.7-2.9-1.7-2.9-4.4-5.4q-1.1-1.1-2.3-2.3 0-1 0-2-2 0-4 0-0.1-0.8-0.2-1.7c-1.1-3.2-3.4-4.9-5.8-7.3q-1-2-2-4-1.5-0.5-3-1-0.2-1-0.4-1.9c-0.3-1.1-0.3-1.1-0.6-2.1q-2-1.1-4-2c-3-3.4-3-3.4-3-6q-1 0-2 0c-1.6-1.3-1.6-1.3-3-3q0-1.5 0-3-2-0.5-4-1-0.2-1-0.4-1.9-0.3-1.1-0.6-2.1-1-0.5-2-1 0-1 0-2-1.5-0.5-3-1c-2.5-2.7-3.9-4.7-5-8.3-0.5-1.3-0.5-1.3-1-2.7q-1-0.2-1.9-0.4c-2.1-0.6-2.1-0.6-3.2-2.3q-0.5-1-0.9-2.1c-1.5-3.5-3.5-6.2-6-9.2q-2.4-3.1-4.8-6.2-1.1-1.5-2.4-3.2c-1.8-2.6-1.8-2.6-1.8-4.6q-1 0-2 0c-1.6-2.4-3-4.9-4.4-7.4q-1.2-2.1-2.4-4.1-0.5-0.9-1.1-1.9c-1.2-1.9-1.2-1.9-4.1-3.6-0.7-2.1-0.7-2.1-1-4q-1.5 0-3 0c-0.5-1.5-0.5-1.5-1-3q1 0 2 0-0.8-1.3-1.6-2.6-1.1-1.8-2.2-3.5-0.5-0.9-1.1-1.8c-2.2-3.6-4.2-7.3-6.1-11.1q-1 0-2 0-0.4-1.5-0.8-3.1c-1-3.6-2.5-6.6-4.2-9.9q0-1 0-2-1 0-2 0c-1.8-2.7-2.3-4-3-7q-1.1-2.6-2.4-5.1-0.7-1.5-1.5-3-0.7-1.6-1.5-3.2c-5.5-11.3-5.5-11.3-7.3-16.2-1.2-3.6-1.2-3.6-3.3-6.5q-1-3-1.9-6c-1.5-5.3-3.3-10.4-5.3-15.6-0.8-2.4-0.8-2.4-1.3-5.2q-0.2-1.1-0.5-2.2-1-0.5-2-1-0.7-3-1.4-6c-0.8-3.7-1.7-7.5-2.6-11.2-0.2-1-0.2-1-0.5-2-0.7-3-1.5-5.9-2.5-8.8-1.2-3.5-1.9-7.1-2.5-10.8q-0.4-2.1-0.8-4.2-0.2-1-0.3-2.1-0.7-3.6-1.5-7.3c-1.8-8.8-2-17.6-1.9-26.6q-1-0.5-2-1 0.1-11.2 0.3-22.4 0-3.8 0-7.6c0.2-19.7 1.6-38.4 6.6-57.5q0.4-1.5 0.8-3.1 2.7-10.4 6.3-20.4 1-3.1 2-6.2c1.4-4.3 3.1-8.4 5-12.6 1.5-3.3 2.8-6.7 4.2-10.1 1.2-3 2.7-5.7 4.2-8.4 1.5-2.6 2.7-5 3.8-7.7 0.8-2 0.8-2 2.8-3q0.4-1.3 0.9-2.7c1.2-3.6 2.9-6.2 5.1-9.3q1.4-2.5 2.9-5.1c1.8-3 3.8-5.9 5.8-8.8 1.3-2.1 1.9-3.7 2.3-6.1q1.5 0 3 0 0.2-0.8 0.3-1.7c2-6.9 7.1-13.1 11.5-18.7 1.3-1.6 1.3-1.6 2.2-3.6q1 0 2 0-0.2-1.1-0.3-2.2c0.4-3.9 2.4-5.1 5.3-7.8q1.5-2.5 3-5 1.5-1.7 3.1-3.4c2.6-3.1 3.7-5.7 4.9-9.6 3-2 3-2 5-3q1.1-2 2-4c1.5-2.8 1.5-2.8 3-5q1 0 2 0 0.2-0.8 0.3-1.7c1.3-4.4 3.8-7.5 6.9-10.8 4.1-4.6 7-9.6 10.1-14.9q0.8-1.3 1.7-2.6 1 0 2 0-0.1-1.7-0.2-3.4 0.1-1.8 0.2-3.6 1.5-1 3-2 1 0.5 2 1 0-1 0-2 1 0 2 0c0.2-0.8 0.2-0.8 0.4-1.6 0.8-3.1 1.7-6.3 2.6-9.4q1 0 2 0 1-2.5 2-5 1 0 2 0 0.4-1 0.8-2.1c1.3-3.1 2.7-6 4.2-8.9q1 0 2 0 0.3-1 0.5-2c0.4-1.4 0.4-1.4 0.7-2.8 0.4-1.3 0.4-1.3 0.8-2.6 1.2-3 2.7-4.4 5-6.6 1.5-2.9 1.5-2.9 2.6-6.1 1.3-3.3 2.4-5.9 4.4-8.9q1 0 2 0 0.1-1 0.2-2c0.9-3.4 2.2-6.1 3.9-9.1 1-2 1-2 1.9-4.9q1 0 2 0c0.3-2.6 0.7-5.3 1-8q1 0 2 0c0.3-3.3 0.7-6.6 1-10q2-0.5 4-1c0.2-1.8 0.2-1.8 0.3-3.6 0.5-4 1.8-6.9 3.7-10.4 0.8-2.3 1.4-4.6 2-7q1 0 2 0 0.1-1.6 0.2-3.2c0.7-4.9 2.2-9.5 3.7-14.2 4.9-15.8 9.1-32.8 9.9-49.4 0.2-2.2 0.2-2.2 1.2-5.2q0.2-3.7 0.2-7.4 0-1.1 0-2.2 0-2.4 0-4.7 0.1-3.5 0.1-7c0.1-10.2-1-19.7-3.3-29.7q-0.3-1.4-0.7-2.9-0.8-3.6-1.8-7.2-0.3-1.1-0.6-2.3c-1.3-4.8-2.9-9.1-4.9-13.6q-1.2-3.2-2.4-6.4c-3.2-9-3.2-9-8.6-16.6q-0.5-1-0.9-1.9c-1-2.1-1-2.1-2.6-3.5-2.5-2.6-3.3-6-4.4-9.4q-0.6-1.1-1.1-2.2-1.5-0.5-3-1 0-1.5 0-3-1 0-2 0c-3-4.4-3-4.4-3-7q-1.5 0-3 0-1.6-2.5-3-5c-1.5-1.8-1.5-1.8-3-3q-1 0-2 0c-1.1-1.7-1.1-1.7-2.3-3.9-1.9-3.4-1.9-3.4-5.3-4.9q-1.2-0.1-2.4-0.2c-1.9-1.3-1.9-1.3-3-3 0.3-2.2 0.3-2.2 1-4q-2.5 0-5 0 0-1.5 0-3c-1.4-1.4-1.4-1.4-3.3-2.6q-1-0.7-2.1-1.4-1.1-0.8-2.2-1.5-1.1-0.7-2.2-1.5c-3.9-2.6-7.9-4.9-12.2-7q-2-1.4-4-3-1 0.5-2 1-0.9-0.9-1.8-1.9c-2-1.9-3.6-3-6.2-4.1q0-1 0-2c3.7-1.2 7.1-1.2 10.9-1.3 1.2 0 1.2 0 2.4-0.1q2.5 0 5-0.1 3.8-0.1 7.6-0.2c13.1-0.3 26.1-0.5 39.2 0.4z"/>
	<path class="s1" d="m488.3 827.9q1.7 0 3.4 0c1.8 0 1.8 0 3.7 0q1.8 0 3.7 0 4.9 0 9.9 0 3 0 6 0 5.8 0 11.6 0 1.8 0 3.7 0c1.7 0 1.7 0 3.4 0q1.4 0 2.9 0c2.4 0.1 2.4 0.1 4.4 1.1q3.4 0.2 6.8 0.4c6.9 0.3 13.6 1.1 20.4 2 1.3 0.2 1.3 0.2 2.7 0.4 4.3 0.6 8.1 1.4 12.1 3.2q2.9 0.7 5.8 1.2c7 1.5 13.9 3.1 20.8 4.9q1.5 0.3 3.1 0.7 1.5 0.4 3.1 0.8c1.3 0.3 1.3 0.3 2.7 0.7 2.6 0.7 5 1.7 7.5 2.7q1.9 0.6 3.9 1.1 1 0.3 2.1 0.7c1.1 0.3 1.1 0.3 2.2 0.6 5.6 1.6 10.9 3.2 16 5.8 2 0.9 3.7 1.4 5.8 1.8q1-0.5 2-1 0.6 0.7 1.2 1.4c2.2 2 3.9 2.2 6.8 2.6q0 1.5 0 3c3.3 0 6.6 0 10 0q-0.5 1-1 2c3.4 1.5 3.4 1.5 7 2q0 1 0 2 0.8 0.2 1.7 0.4c2.6 0.7 4.9 1.7 7.4 2.9 4.6 2.1 9.2 4 13.9 5.8 2 0.9 2 0.9 4 2.9q3.7 1.9 7.4 3.7 2.1 1.1 4.3 2.2 1.1 0.5 2.2 1.1 2.9 1.4 5.7 2.9 1.6 0.8 3.2 1.6 1.4 0.7 2.8 1.5c2.4 1.2 2.4 1.2 5.4 1q0.4 0.9 0.7 1.9c1.5 2.5 2.7 3.1 5.3 4.1q0 1 0 2 1.1-0.1 2.3-0.2c2.7 0.2 2.7 0.2 4.2 1.8q0.7 0.7 1.5 1.4c2.7-0.2 2.7-0.2 5-1q0.5 2 1 4 1-0.5 2-1 0 2 0 4 0.9 0.4 1.7 0.9 2.3 1.1 4.4 2.2c1.9 1 1.9 1 3.9 0.9q1.1 1.1 2.2 2.3c2.7 2.8 2.7 2.8 6 4.3q1.4 0.7 2.8 1.4 0.5 1.5 1 3 2.5 1.1 5 2c4.4 2.2 7.5 4.5 11 8 2.2 1.5 4.3 2.9 6.6 4.3 3.3 2.3 6.4 4.8 9.5 7.3 1.9 1.6 1.9 1.6 4.9 2.4q2.5 2.5 5 5 1.5 0.5 3 1 2.5 2.5 5 5 1.4 0.8 2.8 1.7 1.1 0.6 2.2 1.3 0 1 0 2 1.5-0.5 3-1 1 1 2 2 1.5 0 3 0-1 1-2 2c2.5 2.7 4.7 4.4 8 6q1.5 1.5 3 3c3.3 3 6.6 5.9 10.4 8.2q1.3 0.9 2.6 1.8 0 1 0 2c0.8 0.4 0.8 0.4 1.7 0.8 2.5 1.3 4.9 2.7 7.3 4.2q1 0.5 2 1-0.5 1-1 2c0.8 0.4 0.8 0.4 1.7 0.7 2.7 1.5 4.9 3.4 7.3 5.3q1 0.5 2 1 0 1 0 2 2.5-0.5 5-1c0.2 1.2 0.2 1.2 0.4 2.4q0.3 1.3 0.6 2.6 1 0.5 2 1 0 1 0 2c0.9 0.5 0.9 0.5 1.9 0.9q2 1.1 4.1 2.1 0-1.5 0-3 1 0 2 0-0.5 2.5-1 5 2 1 4 2 0 1 0 2c0.8 0.3 0.8 0.3 1.6 0.7 2.4 1.3 2.4 1.3 5.3 3.9 3.4 2.6 4.1 2.6 8.1 2.4q1 1.5 2 3 1.5 0.5 3 1 0 1.5 0 3 3 1 6 2-1 2-2 4 2.5 0 5 0 0 1.5 0 3c1 0.2 1 0.2 1.9 0.3q1.1 0.4 2.1 0.7 0.5 1.5 1 3 1 0 2 0c0.1 0.9 0.1 0.9 0.2 1.9 0.6 2.4 0.6 2.4 3.2 3.3q1.3 0.4 2.6 0.8c2.5 1.3 4.1 2.9 6 5q0 1 0 2c0.8 0.4 0.8 0.4 1.7 0.8 2.5 1.3 4.9 2.6 7.3 4.2q0 1 0 2 2.5 0 5 0-0.5 1.5-1 3c0.9 0.5 0.9 0.5 1.9 0.9q2 1.1 4.1 2.1 0 1 0 2 0.9 0.1 1.7 0.2c2.9 1 4.3 2.6 6.3 4.8q1 0.5 2 1 0 1 0 2 1 0.3 2.1 0.7c3.7 1.7 6.7 3.9 10 6.3q1.9 1.3 3.7 2.7c1.6 1.1 1.6 1.1 3.2 2.3q1.5 1 3 2 0 1 0 2 3 0 6 0c0.1 0.9 0.1 0.9 0.2 1.8 1.2 3.2 2.9 3.7 5.8 5.2q0.9 0.5 1.7 1.1c3.5 2.1 5.2 2.9 9.3 2.9q-0.5 2-1 4 1.5-0.5 3-1 0.5 1.5 1 3 2-0.5 4-1 0.4 0.9 0.7 1.9c1.6 2.5 2.6 2.8 5.3 4.1 2.3 1.5 4.5 3 6.8 4.6 2 1.3 4 2.4 6.2 3.4q0 1 0 2 2 0 4 0 0 1 0 2 1.1 0.4 2.2 0.9 3.9 1.5 7.8 3.1 0 1 0 2 1.5-0.5 3-1c0.6 0.7 0.6 0.7 1.2 1.3 2.1 2 4.2 3 6.7 4.3q1.3 0.6 2.6 1.2c1.3 0.6 1.3 0.6 2.5 1.2q1 0.5 2 1c2.5 1.2 5 2.3 7.6 3.3 5 2 9.7 4.3 14.4 6.8 1.9 1 1.9 1 4 0.9q0.5-1 1-2 1.5 0.5 3 1 0 1.5 0 3 2.1 1.1 4.2 2.1 1.2 0.5 2.4 1.1c2.7 0.9 3.8 0.7 6.4-0.2q-0.5 1.5-1 3 1.3 0.2 2.5 0.4c3.7 0.6 7.2 1.6 10.8 2.6q1.9 0.5 3.8 1.1c2.9 0.9 2.9 0.9 3.9 1.9q3.5 0.5 7 1 1.5 0.5 3 1 0 1 0 2 2.5 0 5 0 0 1 0 2c-5.3 2.7-10.5 5-16 7q-2.6 1-5.3 2-1.2 0.5-2.4 0.9c-2.4 1.1-4.3 2.5-6.3 4.1q0-1 0-2-1 0-2 0 0 1 0 2-1.9 0.4-3.9 0.7c-5.9 1.4-12.8 3-17.1 7.3q-3.2 0.9-6.4 1.6-1.8 0.4-3.5 0.8c-3.1 0.6-3.1 0.6-6.1 0.6q-0.5 1-1 2c-3.1 0.7-5.9 1-9 1q0 1 0 2-1.5 0-3 0-0.5 1-1 2-1.2-0.1-2.5-0.2c-5.1 0.3-9.9 1.6-13.5 5.2q-0.5-0.5-1-1-0.5 1-1 2c-2 0.3-2 0.3-4.6 0.5-7.4 0.6-14.2 2.4-20.4 6.5q0-1 0-2-1.8 0.5-3.6 1c-15.3 4.4-15.3 4.4-22.6 5.6-2 0.4-2 0.4-4.8 1.4q-0.5 1-1 2 0-1 0-2c-2.3 0.3-4.6 0.7-7 1q-0.5 2.5-1 5-1 0-2 0-0.5-2-1-4-1.8 0.7-3.7 1.4c-5 1.7-10 2.4-15.2 3.1-3.1 0.4-3.1 0.4-5.9 1.5-4.2 1.3-8.3 1.9-12.7 2.4q-1.4 0.2-2.8 0.4c-9.9 1.3-19.9 2.3-29.8 3.2q-1.8 0.2-3.7 0.4-1.7 0.1-3.3 0.3c-2.8 0.2-2.8 0.2-4.9 0.8-2.6 0.6-5 0.7-7.6 0.7q-1.6 0.1-3.2 0.1-3.3 0.1-6.7 0.2-1.6 0.1-3.2 0.1-1.4 0.1-2.9 0.1c-2.6 0.1-2.6 0.1-4.4 2.3-3.1 0.1-3.1 0.1-6 0q0-1 0-2c-4.3 0.2-4.3 0.2-8 2q-2.7 0.1-5.3 0.1-1.7 0-3.3 0c-1.7 0-1.7 0-3.5 0q-1.7 0-3.4-0.1-4.3 0-8.5 0 0-1 0-2c-2.6 0-5.3 0-8 0q-0.5 1-1 2 0-1 0-2-1.1 0.3-2.3 0.6c-2.7 0.4-2.7 0.4-5.7-0.6q-3-0.2-5.9-0.3-1.8 0-3.6-0.1-3.6-0.1-7.3-0.2-1.7-0.1-3.5-0.1-1.6-0.1-3.2-0.1c-2.5-0.2-2.5-0.2-3.5-1.2-3.1-0.5-6.3-0.8-9.4-1.1q-1.3-0.1-2.7-0.2c-6-0.6-11.9-0.8-17.9-0.7q0-1 0-2-1.7 0-3.4 0.1c-4.8 0-9.3-0.7-14-1.5q-1.2-0.2-2.4-0.4c-4-0.6-8-1.4-12-2.3-3.2-0.7-6.4-1.2-9.8-1.5q-1.2-0.1-2.5-0.3-1 0-1.9-0.1 0-1 0-2-1.2-0.1-2.4-0.1c-10.5-0.8-10.5-0.8-15.6-2.9q0 1 0 2-1 0-2 0-0.5-1-1-2-3.3-1.1-6.6-1.8-1.1-0.3-2.1-0.5-3.3-0.9-6.6-1.6-2.1-0.6-4.2-1.1-9.8-2.4-19.6-4.6c-4.6-1.1-9.2-2.3-13.7-3.7q-2.2-0.6-4.3-1.2-1.2-0.4-2.4-0.7-4.2-1.3-8.5-2.5c-9.5-2.7-18.8-5.4-28-9.2-4.8-1.8-9.7-3-14.6-4.2-3.4-0.9-3.4-0.9-6.7-2-2.7-1.1-2.7-1.1-5.7-0.9q0-1.5 0-3-1.8-0.2-3.6-0.3c-4.2-0.5-7.5-2-11.4-3.7-4.8-1.6-8.9-3-14-3q0-1 0-2c-2.6-0.3-5.3-0.7-8-1q0-1.5 0-3-3-0.3-6-0.6c-2-0.4-2-0.4-5-2.4-2.3-0.6-4.6-1-6.9-1.4-2.1-0.6-2.1-0.6-4.1-2.6-5.6-2.6-10-3.4-16-2q0.5-1.5 1-3c-4.5-2.6-8.1-3.4-13.1-3.7q-1-0.1-1.9-0.3-0.5-1-1-2c-2.6-1.1-2.6-1.1-5.6-2q-1.6-0.5-3.3-1.1-3.6-1.1-7.3-2-1.4-0.5-2.8-0.9-0.5-1-1-2-3.2-0.8-6.5-1.4c-4.9-1-9.6-2.2-14.3-3.8-7-2.4-13.9-4.1-21.2-4.8q0-1 0-2c-1.7 0.1-1.7 0.1-3.4 0.1-3.9 0-7.4-0.7-11.2-1.6-8.8-1.9-17.9-1.7-26.9-1.7q-3.3 0-6.6 0c-11.9-0.1-23.4 0.7-34.9 4.2q-1.3 0.4-2.7 0.8-1.2 0.3-2.5 0.7c-1.2 0.4-1.2 0.4-2.5 0.7-2.2 0.8-4.2 1.7-6.3 2.8q-1.5 0.5-3.1 1c-3 0.8-3 0.8-4.9 3q-2.5 0.5-5 1c-6.1 2.5-11.1 5.6-16 10q-4 3-8 6 1.5 0.5 3 1 0-1 0-2 1.2-0.2 2.4-0.4 1.5-0.2 3-0.5 1.5-0.2 3.1-0.5 1.2-0.3 2.5-0.6 0.5-1 1-2c2-0.4 2-0.4 4.5-0.6 3 0 3 0 5.5-1.4 23.7-3.2 49.7-4.1 73 2q2.7 0.5 5.5 0.9c7.6 1.2 15 3.1 22.5 5.1q0 1 0 2 0.8 0 1.6 0c8.6 0.6 16.3 3.3 24.4 6q1.5 0.5 3 1 1.1 0.4 2.4 0.8c3.3 1.3 3.3 1.3 5.6 1.2q0 1 0 2c2.8 0.6 5.5 1.1 8.2 1.4q1.4 0.3 2.8 0.6 0.5 1 1 2c1.9 0.4 1.9 0.4 4 0.5 2.2 0.2 2.2 0.2 4 0.5q0.5 1 1 2c1.9 1 1.9 1 4.2 1.8 1.3 0.6 1.3 0.6 2.7 1.1 1.3 0.5 1.3 0.5 2.7 1q2.7 1.1 5.4 2.1c1.3 0.5 1.3 0.5 2.6 1 2.2 0.9 4.2 1.9 6.4 2.9q1.5 0.5 3 1.1 1.5-1 3-2c0.3 0.9 0.3 0.9 0.7 1.9 1.8 2.8 3.2 3 6.4 3.8q1.4 0.4 2.8 0.8 1 0.2 2.1 0.5 0 1 0 2 1 0 2 0 0-2 0-4 1 0 2 0 0 1.1-0.1 2.2c0.8 2.8 0.8 2.8 2.7 3.8 2.5 1.1 4.9 2.1 7.4 3q3.3 1.4 6.6 2.7 2.7 1.2 5.4 2.3 0 1 0 2 1.2 0.1 2.5 0.2c3.6 0.8 6.3 2.1 9.6 3.9 1.9 1 1.9 1 4 1.4 1.9 0.5 1.9 0.5 4.9 2.5q2.9 1.3 5.8 2.4c3.3 1.4 6.5 2.7 9.6 4.4 2.8 1.3 4.6 1.5 7.6 1.2q-0.5 1-1 2 2.9 1.6 6 3 1-0.5 2-1 0 1 0 2 1 0 2 0 0 1 0 2 1.1 0.2 2.1 0.3c3.2 0.8 5.7 2 8.6 3.5 6.4 3.3 12.8 6.1 19.7 8.3 2.6 0.9 2.6 0.9 4.7 2.5 2.3 1.7 4.1 2 6.9 2.4q0 1 0 2c5.4 1.5 5.4 1.5 11 3q0 1 0 2c1 0.1 1 0.1 2 0.3 3.7 0.9 7 2.3 10.4 3.9 10.7 4.8 21.4 9.3 32.6 12.8q0 1 0 2 1 0 2 0 0.5-1 1-2 0.3 1 0.7 1.9c1.1 2.3 1.1 2.3 3.4 2.7q1.4 0.2 2.9 0.4 2.4 0.5 4.8 1.1 1.2 0.2 2.4 0.5 0.9 0.2 1.8 0.4 0 1 0 2 1 0.2 1.9 0.3c3.3 0.8 6.5 1.8 9.7 2.9q2.5 0.8 4.9 1.6 1.3 0.4 2.5 0.8 1.1 0.3 2.2 0.7c1.8 0.7 1.8 0.7 2.8 2.7q3.5 0.6 7 1c2.4 0.6 4.7 1.3 7 2q0 1 0 2 0.8 0 1.6 0c9.6 0.6 18.3 3.9 27.3 7 12.2 3.9 24.8 6.5 37.4 8.6q4.9 0.8 9.8 1.6c56.6 10.1 56.6 10.1 112.9 2.8 1.7 0 1.7 0 3.3 0.1 6.2 0 12.2-1.1 18.3-2.2 2-0.3 2-0.3 4-0.6 12.2-2.1 24.2-4.9 36.2-7.8 3.4-0.9 6.6-1.5 10-2 2.7-0.4 4.8-1 7.4-1.9 5.5-1.9 11.1-3 16.9-4 6.9-1.4 13.9-2.8 20.7-4.7 10.9-2.8 22.2-4 33.4-5.5 2.7-0.3 2.7-0.3 5-1 2.5-0.6 3.7 0.3 5.8 1.6q-1.2 0.6-2.5 1.3-1.2 0.8-2.5 1.7c-0.2 2.9-0.2 2.9 1 5q-2.5-0.5-5-1-0.6 1-1.1 2.1c-2.3 3.6-5 6.7-7.9 9.9q-1.1 1.2-2.2 2.5c-3.8 4.3-7.7 8.4-11.8 12.5q-2.9 3.5-5.6 7.2c-1.9 2.5-4 4.3-6.5 6.2-3.1 2.3-3.1 2.3-3.9 5.6q-1.5 0.5-3 1-1 1-2 2-1.6 1.4-3.3 2.8c-2.1 1.8-4.2 3.7-6.1 5.6-4.2 4.2-8.5 8.3-13.5 11.4-4.1 2.9-7.4 6.4-10.9 10.1-2.2 2.1-2.2 2.1-4.2 3.1q-1 1.5-2 3-2.5 1.5-5 3c-2.5 1.9-4.8 3.8-7 6-2.7 2.1-5.5 4-8.3 5.8-3.6 2.4-6.8 4.9-9.9 7.7-3.1 2.7-6.5 5.1-9.8 7.5q0.5 2 1 4-1.1-0.3-2.3-0.6c-2.8-0.6-2.8-0.6-5.7 0.6q-0.5 1-1 2-2.5 1.5-5 3-1 1-2 2c-2.7 1.8-5.5 3.5-8.3 5.1-2.7 1.8-2.7 1.8-4.7 4.1-2.4 2.2-3.9 2.3-7 2.8-2.5 1.2-2.5 1.2-4.9 2.8q-1.3 0.8-2.7 1.6-1.2 0.8-2.4 1.6-0.9 0.6-1.9 1.2c-2.3 1.5-4.2 2.9-6.1 4.8q-1.5 0-3 0c-2 1-2 1-4.1 2.4q-1 0.6-2.1 1.3c-1.9 1.3-1.9 1.3-3.8 3.3q-1.5 0-3 0-1 1-2 2-1.9 0.7-3.9 1.2c-4.9 1.6-9.1 3.9-13.5 6.4-2.6 1.4-2.6 1.4-5.4 2.5-2.4 0.7-2.4 0.7-3.2 2.9q-1.2 0.2-2.4 0.4c-2.9 0.4-2.9 0.4-4.6 3.6q-1 0-2 0 0-1 0-2c-2 0.3-2 0.3-4 1q-0.5 1-1 2-2.5 0.8-5 1.4c-3.1 0.9-6 2.3-9 3.6-3.4 1.3-6.7 2.2-10.3 2.9-4.3 0.9-8.3 2.4-12.4 4.2-5.6 2.2-11.6 3-17.5 4.1-3.8 0.8-3.8 0.8-7.5 1.9-3.5 1-6.8 1.3-10.5 1.6q-0.9 0.1-1.8 0.3-0.5 1-1 2c-2.2 0.4-2.2 0.4-5.2 0.6q-1.6 0.1-3.3 0.2-1.7 0.1-3.5 0.2-3.4 0.2-6.8 0.5-5.1 0.4-10.3 0.7c-1.6 0.2-1.6 0.2-3.3 0.3q-1.5 0.1-3.1 0.2c-2.6 0.2-2.6 0.2-5.5 1.3q-3.1 0.1-6.3 0.1-1.8 0-3.7 0-2 0-3.9 0-2 0-3.9 0-1.9 0-3.8 0-1.7 0-3.4 0c-2.6-0.1-4.6-0.4-7-1.1q-2.4-0.3-4.8-0.4-1.4-0.1-2.9-0.2c-1.5-0.2-1.5-0.2-3-0.3-13.9-1.1-27.3-3.5-40.9-6.8-2.9-0.7-5.4-1.3-8.4-1.3q0-1 0-2-1.1-0.2-2.1-0.4c-3-0.6-5.8-1.4-8.7-2.2-1.5-0.4-1.5-0.4-3-0.8-1.1-0.3-1.1-0.3-2.2-0.6q0-1 0-2c-3 0-5.9 0-9 0q0.5-1.5 1-3-0.9 0.3-1.9 0.6c-2.1 0.4-2.1 0.4-4.1-0.6q0-1 0-2-1 1-2 2-1 0.5-2 1-0.5-2.5-1-5-0.9-0.3-1.8-0.6c-4.5-1.4-8.2-3-12.2-5.4q-1 0.5-2 1 0-1.5 0-3-1.6-0.5-3.3-0.9-3.4-1-6.7-2.1-0.5-1-1-2-2.5-1.1-5-2 0-1 0-2c-1.3-0.1-1.3-0.1-2.6-0.2-4.2-1-7.3-2.8-10.4-5.8q0-1 0-2-0.8-0.1-1.7-0.3c-3-0.9-5.2-2.5-7.9-4.2-2.8-1.9-5.1-3.4-8.4-4.5q0-1 0-2-1.1-0.4-2.2-0.8c-2.9-1.2-5.1-2.7-7.6-4.5-3.1-2.2-6.2-4.4-9.5-6.4-3.1-1.9-5.9-4-8.7-6.3q-1-0.5-2-1 0-1 0-2-0.9-0.2-1.8-0.3c-2.4-0.8-3.8-1.7-5.8-3.3-2.4-2-2.4-2-5.4-2.4q-1-1-2-2c-5.6-5-11.5-9.9-17.9-13.8-2.1-1.2-2.1-1.2-3.1-3.2q-2 0.5-4 1-0.3-0.9-0.7-1.8c-2.2-3.8-5.2-5.8-9.3-7.2q0-1 0-2c-0.9-0.4-0.9-0.4-1.7-0.8-3-1.5-5.7-3.4-8.4-5.2-2-1.2-2-1.2-4.9-1q-1.7-1.7-3.4-3.5c-3.4-3.2-7.7-5.3-11.7-7.7q-2.7-1.6-5.4-3.2-1.2-0.6-2.4-1.4-2.6-1.5-5.1-3.2 0 1 0 2-1.5-0.5-3-1 0.5-2 1-4-1.1-0.2-2.2-0.3c-2.8-0.7-2.8-0.7-5.5-2.3-1.1-0.7-1.1-0.7-2.3-1.4q-1 0.5-2 1 0-1.5 0-3-1.1-0.4-2.2-0.8c-2.8-1.2-5.5-2.5-8.2-3.9q-7.1-3.6-14.4-7c-0.9-0.4-0.9-0.4-1.9-0.9q-4.5-2-9-4c-2.4-1-4.8-2.1-7.1-3.3-7.5-3.8-15.3-6.5-23.3-9.1q-3.9-1.4-7.8-3c-5.9-2.4-12-4.2-18.1-6q-0.5 1-1 2-1.5-1.5-3-3-0.5 1-1 2-0.5-1-1-2c-3.8-1.9-7.2-2.4-11.3-2.6q-1.6-0.1-3.3-0.3-1.2 0-2.4-0.1 0-1 0-2-1.9-0.2-3.8-0.4-2.5-0.3-5-0.5-1.2-0.2-2.5-0.3-1.1-0.1-2.4-0.3-1.1-0.1-2.2-0.2c-2.1-0.3-2.1-0.3-4.1-0.8-2.3-0.6-4.4-0.7-6.8-0.8q-1.3-0.1-2.7-0.1c-1.3-0.1-1.3-0.1-2.8-0.2q-1.3 0-2.8-0.1-3.4-0.2-6.9-0.3 0-1 0-2c-4.3 0.2-4.3 0.2-8 2q-2.2 0.3-4.4 0.5c-3.4 0.3-3.4 0.3-6.6 1.5q0-1 0-2c-1.6 0.5-1.6 0.5-3.3 0.9-3.3 0.9-6.3 1.3-9.7 1.5-5 0.4-9.6 1.3-14.4 2.5q-1.1 0.3-2.1 0.6c-4.6 1.1-8.2 2.2-11.5 5.5q-1.5 0-3 0-1 1.5-2 3-0.5-1-1-2-1 1-2 2-2 0-4 0c-2.5 1.2-4.9 2.4-7.3 3.7q-1 0.6-1.9 1.1-2.9 1.6-5.8 3.2c-1 0.5-1 0.5-2 1.1-2.6 1.5-4.9 2.8-7 4.9q-1.2 0.5-2.4 0.9c-7.4 3.1-13.7 9.8-19.6 15.1q-1.4 1.2-2.8 2.4c-8.4 7.5-16.2 15.5-22.4 24.9-1.8 2.7-1.8 2.7-3.8 3.7q0 1.5 0 3-2.5 2.5-5 5c-2.6 3.5-4.5 6.9-6 11q-1 0-2 0-0.4 1.4-0.8 2.7c-1.1 3-2.2 4.9-4.2 7.3-2.4-6.6-2.3-13-2.2-20.1q0-1.8 0-3.8 0-4 0-8 0-5.1 0-10.2c0-33.3 0-33.3 1.7-41.3 0.6-3.3 0.8-6.5 0.9-9.8 0.5-8.9 1.6-17.7 2.9-26.6q0.2-1.1 0.3-2.3c1.6-10.8 3.3-21.5 5.6-32.1 0.8-3.8 0.8-3.8 1.3-7.5 0.5-3.1 1.3-5.4 2.5-8.3q0.5-2.6 0.8-5.3c0.9-6 2.6-11.6 4.4-17.5 1.5-4.9 2.5-9.8 3.4-14.9 0.5-2.7 1.4-5.3 2.5-7.9 1.3-3.4 2.3-6.9 3.4-10.4 2.1-6.7 4.3-13.2 7.1-19.6 1.3-3.2 2-6 2.4-9.4q1 0 2 0 0.4-1.9 0.7-3.9c1.2-5.3 3.2-10.2 5.3-15.3 3.2-7.8 3.2-7.8 6-15.8q1 0 2 0c0.2-1.1 0.2-1.1 0.3-2.1 0.8-3.2 1.9-5.8 3.3-8.7 0.6-1.5 0.6-1.5 1.3-3q0.6-1.1 1.1-2.2 1 0 2 0 0.1-1.2 0.2-2.4c1.2-5.4 3.4-10.3 6.2-15 1.8-2.9 3.3-5.9 4.8-8.9q0.8-1.6 1.6-3.3 0.6-1.2 1.2-2.4 1 0 2 0 0-2.5 0-5 1 0 2 0-0.5-1.5-1-3 0.9-0.8 1.8-1.7c2.1-2.2 3.5-4.2 5-6.8q0.8-1.3 1.6-2.6 0.8-1.4 1.6-2.9c8.5-14.6 8.5-14.6 11-18q1 0 2 0 0.2-0.9 0.4-1.7c0.6-2.4 1.5-4.4 2.7-6.6q0.5-1 1.1-2.1c0.4-0.8 0.4-0.8 0.8-1.6q1 0 2 0c0.4-0.8 0.4-0.8 0.7-1.6 4.8-9.2 4.8-9.2 8.3-10.4q-0.2-1.1-0.3-2.2c0.4-3.9 2.4-5.2 5.3-7.8q0.5-1 1-2 1 0 2 0 0.1-1.1 0.2-2.3c1-3.3 2.1-3.8 4.8-5.7 1.3-2.1 1.3-2.1 2-4q1 0 2 0 0.5-0.9 0.9-1.9 1.1-2 2.1-4.1 1 0 2 0 0-1 0-2 1 0 2 0 0-1.5 0-3 1.5-1 3-2 0-1.5 0-3 1.1-0.6 2.2-1.3c3.4-2.1 4.9-4.3 6.8-7.7q0-1.5 0-3 2 0.5 4 1 0.4-0.8 0.7-1.7c1.5-2.7 3.2-5 5.3-7.3q1 0 2 0 0.5-2 1-4 1.5 0 3 0 0.2-0.9 0.3-1.8c0.8-2.5 1.7-3.5 3.7-5.2 2.2-2 2.2-2 4-5q1.5-1 3-2 1-1 2-2 1.7-1.5 3.4-3 0.8-0.8 1.7-1.6c1.9-1.4 1.9-1.4 4.1-2.4 2.2-0.9 2.2-0.9 2.8-4 5.5-5 5.5-5 8-5q0-1.5 0-3 2-1.4 4.1-2.7c3.2-2.2 5.9-4.9 8.8-7.6 2.1-1.7 3.4-2.3 6.1-2.7 0.2-1 0.2-1 0.3-1.9 0.4-1.1 0.4-1.1 0.7-2.1q1.5-0.5 3-1 0.5-1 1-2 1.5-0.5 3-1 0.5-1 1-2 2.5-1.4 4.9-2.8c6.5-3.7 6.5-3.7 11.1-9.2 2.6-1.6 3.9-2 7-2q0-1 0-2 2-0.5 4-1-0.5-1.5-1-3 1.3-0.4 2.6-0.8c3.6-1.3 6.3-3 9.5-5.1 5.2-3.6 10.4-6.9 16-9.8q1.2-0.6 2.5-1.3c2.4-1 2.4-1 6.4-1q0.5-1.5 1-3c2.8-1.2 5.4-2.1 8.2-3.1q2.3-0.7 4.6-1.5 1.1-0.4 2.2-0.7c2.4-0.8 4.7-1.6 7-2.7 0.9-2 0.9-2 1-4q1.4 0.3 2.8 0.7c6.4 0.9 12.6-1.8 18.6-3.8 2.6-0.9 2.6-0.9 5.4-1.4 1.1-0.2 1.1-0.2 2.2-0.5q0.5-1 1-2 1 0 2 0 0.5-1 1-2 1 1 2 2c2.7-0.2 5.3-0.4 7.9-0.8q2.3-0.3 4.7-0.6 1.1-0.2 2.3-0.3c3.7-0.5 7.4-0.8 11.1-1.1 3.4-0.4 5.8-1.3 9.3-1.3z"/>
	<path class="s1" d="m1590.1 833.8q1.5 0 3.1 0 1.6 0 3.3 0 1.7-0.1 3.5-0.1 3.7 0 7.4 0 3.7 0 7.4-0.1c25.4-0.3 52.5 1.8 76.5 11 3 1.1 5.6 1.8 8.7 2.4q2.6 0.9 5.1 2c2.9 1.2 5.8 2.3 8.9 3q0 1 0 2 1 0.1 2 0.3c4.6 1.1 8.8 3.2 13.1 5.3 3.8 1.7 6.7 2.9 10.9 2.4q-0.5 1-1 2 4.9 2.8 9.9 5.5 1.4 0.8 2.8 1.6 1.4 0.7 2.7 1.5 1.3 0.7 2.5 1.4c2 1.1 2 1.1 4.1 1q0.5 1 1 2 1.5 0.5 3 1 0 1 0 2 2 0 4 0 0 1 0 2 1.1 0.4 2.3 0.8c2.7 1.2 2.7 1.2 4.8 2.8 1.8 1.5 1.8 1.5 4 1.9 2.4 0.6 3.1 1.7 4.9 3.5 2.7 2.2 5.6 4.2 8.4 6.2 1.2 0.8 1.2 0.8 2.4 1.7q1.1 0.8 2.2 1.6c1 0.7 1 0.7 2 1.4 2.2 1.4 2.2 1.4 6 1.1q0 1.5 0 3c1.5-0.5 1.5-0.5 3-1q0.5 2.5 1 5c0.8 0.2 0.8 0.2 1.7 0.4 5.5 1.5 8.3 3.5 12.3 7.6q1 0 2 0 0 1.5 0 3 3 0.5 6 1 0-1 0-2 1 0 2 0-0.5 2.5-1 5 1.2 0.2 2.4 0.3c2.6 0.7 2.6 0.7 4.6 3.7q0.5 1 1 2 2 1.1 4 2c2.8 1.5 2.8 1.5 5 3q0 1 0 2 2.5 0 5 0 0.5 1.5 1 3c1.9 1.4 1.9 1.4 4.1 2.6 2.2 1.2 2.2 1.2 3.9 2.4q0 1 0 2 0.8 0.1 1.7 0.3c3 0.9 5.1 2.6 7.7 4.6 3.7 2.8 7.4 5 11.6 7.1q2.7 1.7 5.3 3.6c10 6.7 20.4 12.7 31 18.4 1.5 0.9 3 1.9 4.5 2.8 2.4 1.5 2.4 1.5 6.2 1.2q0.5 2 1 4c3.3 0.3 6.6 0.7 10 1q0 1.5 0 3c0.9 0.2 0.9 0.2 1.9 0.4 2.1 0.6 2.1 0.6 4.1 1.6q0 1 0 2 2.5 0 5 0 0 1 0 2c1.9 0.5 1.9 0.5 3.8 0.9 2.5 0.6 4.8 1.3 7.2 2.1q0.5 1 1 2c2.5 1.1 2.5 1.1 5.4 2.1q1.5 0.6 3 1.1c2.5 0.9 2.5 0.9 4.6 0.8q0 1 0 2c2.3 0.3 4.6 0.7 7 1q0 1 0 2 1.3 0.2 2.5 0.4c3.7 0.6 7.2 1.7 10.8 2.8q8.8 2.9 17.8 5.4 1 0.2 2 0.5 2.1 0.6 4.3 1.2 3 0.8 6 1.7c8.9 2.5 17.8 4.1 27 5.2q2.1 0.2 4.2 0.5 5.7 0.7 11.4 1.3 1.3 0.1 2.7 0.3c9.3 1 18 0.4 27.1-0.8 4.1-0.6 8.1-0.6 12.2-0.5q0.5-1 1-2c1.7-0.3 1.7-0.3 4-0.4 5.1-0.5 9.5-1.9 14.3-3.7q2.3-0.8 4.7-1.6c1-0.4 1-0.4 2-0.8 2-0.5 2-0.5 6-0.5q0.5-1 1-2 1.5-0.5 3-1 0-1 0-2c1.6-0.2 1.6-0.2 3.3-0.4 3.9-0.6 3.9-0.6 7.7-1.6q0.5-1 1-2 2.5-1 5-2 1.3-0.8 2.6-1.6c2.4-1.4 2.4-1.4 5.4-1.4q0-1 0-2 0.9-0.4 1.8-0.8c2.2-1.1 2.2-1.1 3.8-2.8 1.4-1.4 1.4-1.4 4.4-2.4q0.5-1 1-2-1-0.5-2-1c1.5-0.2 1.5-0.2 2.9-0.4q1.5-0.3 3.1-0.6 0.5-1 1-2 1.3-0.6 2.6-1.2c5.1-2.7 10.5-6.2 12.4-11.8q2 0 4 0 0.3-0.8 0.7-1.7c2.3-4.1 5.8-7.2 9-10.6 1.9-2.3 3.2-4 4.3-6.7q1 0 2 0 1-2.5 2-5 1 0 2 0c0.4-1.7 0.4-1.7 0.8-3.4 0.6-1.8 0.6-1.8 1.2-3.6 1.5-0.5 1.5-0.5 3-1 1.4-2.9 2.3-5.8 3-9q1 0 2 0c0.7-2.3 1.3-4.6 2-7q1 0 2 0 0.2-1 0.4-1.9 0.3-1.1 0.6-2.1 1-0.5 2-1c1.7 9.3 2.3 18.2 2.2 27.6q0 2 0 4c-0.1 8-0.3 16-0.8 24-0.4 6.3-0.4 12.5-0.3 18.8-0.1 3.1-0.4 6.1-0.8 9.1-0.4 3.2-0.7 6.4-1 9.6q-0.2 1.9-0.4 3.8-0.3 3-0.6 6-0.3 2.9-0.6 5.8-0.2 1.8-0.3 3.5c-0.4 2.8-0.4 2.8-1.4 4.8q-0.6 3.8-1.1 7.6c-0.1 1.1-0.1 1.1-0.2 2.1-0.5 3.6-0.7 7-0.7 10.6 0 4-0.9 6.9-2 10.7q-0.4 3.7-0.6 7.5c-0.4 2.5-0.4 2.5-1.8 5.3-1.9 3.8-2.6 7.4-3.3 11.6q-0.2 1.1-0.4 2.2-0.5 2.7-0.9 5.4 1 0.5 2 1-1.5 1-3 2c-0.8 1.8-0.8 1.8-1.4 4q-0.3 1.1-0.6 2.3-0.3 1.3-0.6 2.5-0.3 1.2-0.7 2.5c-1.6 6.2-2.8 12.3-3.7 18.7q-1 0-2 0-0.2 1-0.4 1.9c-1.5 7.8-3.5 14.8-6.6 22.1q-1 3.5-2 7c-1.6 4.6-3.2 9.1-5.1 13.6-1.1 2.8-1.5 5.5-1.9 8.4q-1 0-2 0-0.2 0.8-0.3 1.6c-0.9 3-2.3 5.6-3.7 8.4q1 0 2 0-0.5 1.5-1 3-0.5-0.5-1-1c-1.4 3.4-1.4 3.4-2.4 6.9-0.6 2.1-0.6 2.1-2.7 4.8-2.5 4.2-2.2 6.5-1.9 11.3q-2 1-4 2 0 1.5 0 3-0.6 0.6-1.3 1.2c-2 2.1-2.8 4.2-3.8 6.8-1 2.3-2.2 4.4-3.4 6.6q-0.6 1.1-1.3 2.3-0.6 1-1.2 2.1c-1.9 3.2-1.9 3.2-3 6q0.5 1.5 1 3-1.5 0-3 0-0.1 0.8-0.2 1.6c-1.1 3.2-2.9 5.6-4.8 8.4q-1 1.5-2 3 0.5 1 1 2-1 0-2 0c-1.1 2.1-2.1 4.2-2.9 6.4-1.3 3-3 5.1-5.1 7.6q-1.4 2-2.7 4.1-0.7 1-1.3 2c-1.2 2-1.2 2-1 4.9-2.5 2.2-2.5 2.2-5 4q0.5 1 1 2-2 2-4 4 1 0 2 0 0 2.5 0 5-2-0.5-4-1c-3.9 4.5-7.5 9.2-11 14q0.5 1 1 2-1.2 1.2-2.5 2.4c-2.7 2.2-2.7 2.2-2.5 4.6-1.4 1.2-1.4 1.2-3.2 2.6-4 3.3-6.3 7-8.8 11.4q-1 1.5-2 3 0 1 0 2-1.5 0.5-3 1c-1.2 1.7-1.2 1.7-2.3 3.7-2 3.4-4 5.6-7.1 8-5.2 4.3-9.2 10-13.2 15.5-1.9 2.5-4.1 4.6-6.4 6.8q-1 1-2 2-1 0.7-2.1 1.4c-2.2 1.5-2.2 1.5-2.9 4.6-1.5 1.4-1.5 1.4-3.2 2.8-2.5 2-4.5 4-6.5 6.4-2.1 2.5-3.3 3.7-6.3 4.8q0 1 0 2-1 0-2 0-0.5 1-1 2c-3.1 3.3-6.4 6.2-10 9-5.7 4.8-5.7 4.8-10.6 10.3-2.7 3-4.5 3.8-8.4 4.7q0 1 0 2-3 2.1-6 4-1 1-2 2-0.9 0.4-1.8 0.8c-2.4 1.2-2.4 1.2-4.6 3.6-2.5 2.5-4.6 3.9-7.6 5.6q-1.3 1-2.6 2.1c-2.1 1.6-4 2.7-6.4 3.9q-1 1-2 2-2.5 1.5-5 3-1 1-2 2-0.9 0.4-1.8 0.9c-3.5 1.8-6.4 4.3-9.2 7.1q0-1 0-2c-1.4 0.8-1.4 0.8-2.9 1.6q-1.8 1.1-3.7 2.2c-1 0.5-1 0.5-1.9 1.1-3.8 2.2-7.6 4.2-11.5 6.1q0 1 0 2c-1.5 0.1-1.5 0.1-3 0.2-3.7 0.6-6.4 1.9-9.7 3.7-3.7 1.8-7.7 2.9-11.7 4.1-2.6 1-3.8 1.9-5.6 4q0-1 0-2c-2.3 1-2.3 1-4 4q0-1.5 0-3-1 0-2 0-0.5 2-1 4-1 0-2 0 0-1 0-2c-7.8 1.9-7.8 1.9-15.5 4.2-2.5 0.8-2.5 0.8-6.5 0.8q-0.5 1-1 2-1.5 0-3 0-2.8 0.2-5.7 0.5-1.5 0.1-3 0.3-1.1 0.1-2.3 0.2 0 1 0 2-1.5-0.5-3-1c-5.7-0.5-11.3 0.1-16.9 1-7.8 1.1-15.5 1.2-23.3 1.2-1.8 0-1.8 0-3.6 0-8.5-0.1-8.5-0.1-11.8-0.7-2.5-0.5-4.6-0.5-7.2-0.4-7.5 0-14.8-1.2-22.1-2.4q-2.2-0.3-4.5-0.6c-8.8-1.4-17.6-3-26.4-4.9-5.1-1-10.1-1.7-15.3-1.9-1.9-0.3-1.9-0.3-3.9-2.3q-1.5 0.5-3 1 0-1 0-2-2.7-0.8-5.4-1.5-1.5-0.4-3-0.8c-2.5-0.8-2.5-0.8-4.6-0.7q0-1 0-2c-3.3-0.7-6.6-1.3-10-2q0 1 0 2-1-0.5-2-1 0.5-1 1-2c-2.6-0.3-5.3-0.7-8-1q0-1 0-2-1.3-0.2-2.7-0.4c-3-0.6-5.5-1.4-8.3-2.6q-1.3-0.4-2.6-0.8c-4.1-1.4-7.9-3.3-11.8-5.2-2.8-1.2-2.8-1.2-6.6-1q-0.5-1-1-2c-3.3-1.9-6.9-3.2-10.4-4.6q-1.7-0.6-3.4-1.3c-2.8-0.9-5.3-1.6-8.2-2.1q-0.5-1.5-1-3-1.5 0-3 0 0-1 0-2-0.9-0.2-1.7-0.4c-2.3-0.6-2.3-0.6-4.2-1.7-2.5-1.1-4.4-1-7.1-0.9q0-1.5 0-3c-4.1-1.4-4.1-1.4-8.2-2.6-1.8-0.4-1.8-0.4-3.8-1.4q0.5-1 1-2-2.5-0.5-5-1 0-1 0-2c-2.5-0.7-4.4-1-7-1-2.7-1.9-2.7-1.9-5-4q0-1 0-2-1.3-0.4-2.7-0.8c-4.3-1.6-7.7-3.8-11.4-6.4-2.8-2.1-2.8-2.1-5.9-1.8q0-1.5 0-3c-2.6-0.3-5.3-0.7-8-1q0-2 0-4-1.1-0.4-2.2-0.8c-4.1-1.8-7.3-3.8-10.7-6.7-3-2.4-5.7-3.9-9.1-5.5q-1-0.5-2-1 0-1 0-2c-2.3-1.2-4.5-2.2-7-3q-1.1-1.1-2.2-2.3c-2.9-2.8-5.7-4.6-9.2-6.6q-0.8-0.5-1.6-1.1 0-1 0-2-2 0-4 0-0.5-1-1-2-1.5 0.5-3 1-0.5-2-1-4-1.5 0-3 0 0-1.5 0-3-1.5-0.5-3-1-1.5-1.5-3-3c-2.7-2.2-5.6-4.4-8.4-6.5q-1.1-0.9-2.3-1.8c-3-2.3-6-4.5-9.3-6.5-2.4-1.4-2.8-2.7-4-5.2q-2-0.5-4-1-2.1-1.9-4-4-1-0.5-2-1 0-1 0-2-1.5 0-3 0c-1.4-1.3-2.7-2.6-4-4-4.9-4.5-10-8.6-15.3-12.5q-0.8-0.7-1.7-1.5 0-1 0-2-0.9 0.2-1.8 0.5c-2.2 0.5-2.2 0.5-5.2 0.5-0.4-1.2-0.4-1.2-0.8-2.4-1-2.9-1-2.9-4.2-4.6q-0.5-1.5-1-3-1.5 0-3 0 0-1.5 0-3-3-2-6-4-1-2-2-4c-2.4-1.2-2.4-1.2-5-2-3.4-1.1-4.1-2-6-5q0-1 0-2c-0.8-0.3-0.8-0.3-1.6-0.7-5.9-3.2-11.7-7.5-16.4-12.3q0-1 0-2-2.5-1-5-2 0-1 0-2-1.4-0.1-2.8-0.2c-3.2-0.8-3.2-0.8-4.8-3.1q-0.7-1.3-1.4-2.7-2.5-2-5-4 0-1 0-2-0.9-0.2-1.8-0.3c-2.5-0.8-3.7-1.7-5.6-3.5-3.1-2.8-6-5.2-9.6-7.2-2.3 0.1-2.3 0.1-4 1q1-1.5 2-3-2.1-1.7-4.2-3.4-1.2-1-2.4-2c-2.3-1.5-3.8-2.2-6.4-2.6q0-1.5 0-3-1.5 0-3 0c-1-1.5-1-1.5-2-3q-1.5-0.5-3-1 0-1 0-2-1.5 0-3 0 0-1 0-2-1.1-0.1-2.2-0.2c-3.7-1-5.1-3.1-7.8-5.8-1.8-0.9-1.8-0.9-3.7-1.6-3.3-1.4-3.3-1.4-5.3-4.4-2.4-2.2-4.5-3.8-7.5-5-3-1.2-5-2.9-7.5-5q-1-0.5-2-1-0.5 1-1 2 0-2 0-4c-2.5-1.3-5-2.4-7.7-3.5-3.3-1.5-3.3-1.5-4.3-3.5q-1.6-0.4-3.2-0.9c-3.9-1.1-6-2.3-8.8-5.1q0-1 0-2-2.5 0-5 0 0-1 0-2-1 0-2 0-0.5 1-1 2-0.3-0.9-0.6-1.9c-1.9-2.9-4.1-3.2-7.4-4.1q0-1 0-2-1.5 0-3 0 0-1 0-2-1.3-0.1-2.6-0.3c-3.9-0.8-6.1-2.5-9.4-4.7-3.7-1.7-6.9-3-11-3q0.5-1 1-2-2.5 0.5-5 1c-0.5-1.5-0.5-1.5-1-3-3.3-1.7-5.2-2-9-2q0-1 0-2-1-0.2-2.1-0.4c-3.3-0.7-6.6-1.5-9.9-2.6q-0.5-1-1-2-3-0.6-6-1c-3.8-1-7.6-2.2-11.3-3.4q-5-1.7-10.1-3.3-1.2-0.4-2.4-0.7c-2.3-0.7-2.3-0.7-5.2-0.6q0-1 0-2c0.8-0.3 0.8-0.3 1.7-0.6q3.9-1.4 7.8-2.7 1.3-0.5 2.7-0.9 3.9-1.4 7.8-2.8 1.2-0.4 2.4-0.8c4.1-1.5 4.1-1.5 7.6-4.2 3.6-1 7.2-1.9 10.9-2.5q1.1-0.2 2.1-0.5 0.5-1 1-2 3.3-1.1 6.7-2.1c1.8-0.5 1.8-0.5 3.7-1 3.2-0.8 6.3-1.4 9.6-1.9q0-1 0-2 1.6-0.4 3.3-0.8c11.5-3.1 22.6-6.9 33.7-11.2q0-1 0-2 1.3 0.3 2.5 0.6c4.1 0.5 7.1-0.5 10.8-1.9 14.5-5.2 14.5-5.2 21.7-4.7q0.5-1 1-2c2.4-0.6 2.4-0.6 5.9-1.3 7.8-1.4 15.7-3.1 23.5-4.8q1.8-0.4 3.7-0.8c1.7-0.4 1.7-0.4 3.4-0.8 1.6-0.3 1.6-0.3 3.1-0.7 2.3-0.4 2.3-0.4 3.4-1.6q2.6-0.5 5.1-0.9 1.6-0.3 3.2-0.5 3.4-0.5 6.7-1.1c5.2-0.8 10-1.8 15-3.5q3.8-0.4 7.7-0.6c5.2-0.2 5.2-0.2 10.3-1.4q2-0.3 4-0.5 1.2-0.1 2.4-0.2 1.3-0.1 2.7-0.2c1.3-0.2 1.3-0.2 2.7-0.3q4.5-0.4 8.9-0.8c1.5-0.1 1.5-0.1 3-0.3 25.5-2.3 50.7-3.1 76.3-2.3q1 0.1 2.1 0.1c29.9 1 29.9 1 37.9 3.5q0-1 0-2c2.6 0 5.3 0 8 0q0 1.5 0 3 1.1 0 2.2-0.1c6.3-0.1 12.1 0.3 18.2 1.5 2.8 0.5 5.5 0.9 8.2 1.2 10.5 1.4 20.7 3.2 31 5.6 6.8 1.5 13.5 2.8 20.4 3.9 4.8 0.8 4.8 0.8 7 1.9q0-1.5 0-3-1-0.5-2-1 2 0.5 4 1-0.5 2-1 4 1.7 0.1 3.5 0.3c7.3 0.8 14.5 2.8 21.6 4.6q2.2 0.6 4.3 1.1c6.3 1.6 12.4 3.2 18.6 5q2 0.5 3.9 0.9c2.9 0.7 5.5 1.6 8.2 2.7 3.3 1.2 6.4 2 9.9 2.4q0 1 0 2c3.3 0.3 6.6 0.7 10 1q0 1 0 2 1.5-0.5 3-1c2.6 0.7 2.6 0.7 5.6 1.7 1.6 0.6 1.6 0.6 3.3 1.2 1.5 0.5 1.5 0.5 3.1 1.1q2.4 0.8 4.8 1.6 4.1 1.4 8.3 3c3.9 1.5 7.8 2.5 11.9 3.4q0 1 0 2c2.6 0 5.3 0 8 0q0.5 1 1 2 3 1.1 6.1 1.9c3.6 1.1 7 2.1 10.5 3.7 4.1 1.7 8.3 2.7 12.7 3.8 2.7 0.6 2.7 0.6 5.7 1.6q0.5 1 1 2c2 0.9 2 0.9 4.4 1.6q1.4 0.5 2.8 0.9 1.4 0.5 2.9 0.9 2.8 0.9 5.6 1.8 1.3 0.5 2.7 0.9 4.4 1.5 8.7 3.2c3.1 1.2 6.3 2.3 9.4 3.4q1.8 0.6 3.7 1.3 1.4 0.5 2.8 1 0 1 0 2c3.6 0 7.3 0 11 0q-0.5 1.5-1 3 1 0.2 2.1 0.4 1.3 0.2 2.7 0.5c1.4 0.2 1.4 0.2 2.7 0.5 2.5 0.6 2.5 0.6 5.5 2.6q2.7 0.9 5.4 1.7 1.7 0.4 3.3 0.9 1.7 0.4 3.4 0.9 1.7 0.5 3.4 0.9c5.5 1.6 10.9 3 16.5 4.2 1.9 0.4 3.7 0.9 5.6 1.4 3.7 1.1 7.4 1.9 11.2 2.6q1.1 0.2 2.2 0.4c6.4 1 12.8 1.5 19.3 1.7 5.5 0.2 5.5 0.2 7.7 1.3 8 0.5 16-0.2 24-1.2q1.6-0.2 3.3-0.4c7-0.9 13.8-2.1 20.7-3.8q1.2-0.3 2.4-0.6c4.8-1.3 9.2-3 13.7-5.1 1.9-0.9 1.9-0.9 4.9-1.9q2-0.9 4-1.9c1-0.5 1-0.5 2.1-1.1 2.1-1.1 2.1-1.1 4.9-3q1.5 0 3 0 0-1 0-2c1.7-1.3 3.5-2.4 5.4-3.6 1.9-1.7 2.2-2.9 2.6-5.4q-1.3 0.7-2.6 1.4c-3.4 1.6-6.7 2.7-10.4 3.6q-1-0.5-2-1-0.5 1-1 2c-11.7 1.8-24 1.3-35.8 1.3-1.4 0-1.4 0-2.9 0-20 0-39-2.2-58.3-7.6-3.1-0.9-3.1-0.9-7-0.7q0-1 0-2-1-0.2-2-0.3c-3.8-0.9-7.5-2-11.2-3.1-5.5-1.7-11-3.2-16.7-4-2.1-0.6-2.1-0.6-4.4-2-3.2-1.9-6.3-2.9-9.9-4-6-2-11.9-4.1-17.8-6.6-11.2-5.5-11.2-5.5-23-8q-0.5-1-1-2-1.5 0-3 0 0-1 0-2-0.8-0.2-1.6-0.5c-6-1.9-11.8-4.2-17.5-6.8q-1.4-0.5-2.8-1.1c-7.8-3.4-15.4-7-23.1-10.6q-3.1-1.4-6.1-2.8-1.3-0.6-2.5-1.2-1.2-0.5-2.4-1-1.3-0.6-2.7-1.2-1.1-0.4-2.3-0.8c-1 0.5-1 0.5-2 1q-0.7-0.9-1.5-1.8c-3.2-2.8-6.6-4.4-10.5-6.2q-1.4-0.6-2.9-1.3c-2.1-1-2.1-1-4.1 0.3q-1-1.5-2-3c-2.6-1.5-2.6-1.5-5.5-2.8q-1.5-0.6-3-1.3-1.2-0.4-2.5-0.9c-1 0.5-1 0.5-2 1q0-1 0-2-2-0.5-4-1 0-1 0-2-1.3-0.2-2.6-0.3c-3.6-0.7-6.2-2-9.4-3.7-2.2-0.7-2.2-0.7-4-1q0-1 0-2-0.9-0.2-1.8-0.4c-6.2-1.7-11.7-4.2-17.3-7.2-4-1.9-7.5-3.4-11.9-3.4q0-1.5 0-3-1.3-0.2-2.6-0.4c-3.3-0.6-6.3-1.5-9.4-2.6q0-1 0-2-2 0-4 0 0-1 0-2c-1.9-0.3-1.9-0.3-3.9-0.7-4.5-1-8.1-2.7-12.1-4.9-3.7-1.8-7.5-3.2-11.3-4.7q-1-0.3-2.1-0.7c-3.5-1.3-6.9-2.4-10.6-3q0-1 0-2-0.8-0.2-1.7-0.3c-5.5-1.2-11.1-2.4-16.3-4.7q-0.5-1-1-2c-1.9-0.5-1.9-0.5-4.1-0.6-1.9-0.2-1.9-0.2-3.9-0.4q0-1 0-2-1 0.1-2 0.2c-3.4-0.2-5.9-1.2-9-2.4-2-0.8-2-0.8-3.9-1.3-2.7-0.7-5.4-1.7-8-2.6-10.3-3.6-21-5.9-31.6-8.3-3.5-0.9-7.1-1.7-10.6-2.7-2.6-0.8-5.2-1.4-7.9-1.9q-1.6-0.3-3.2-0.6-1.8-0.4-3.6-0.8-1.7-0.3-3.5-0.7-1.1-0.2-2.1-0.4-3.1-0.6-6.1-1.2c-9.7-1.9-19.2-3.1-29.1-3.9q-2-0.2-4.1-0.4-6.2-0.5-12.3-1-1.9-0.2-3.8-0.3c-16-1.2-31.5-0.5-47.5 0.9q-4.6 0.4-9.3 0.8-2.9 0.3-5.9 0.5-1.4 0.1-2.8 0.3c-6 0.5-11.8 1.5-17.7 2.8q-3.8 0.7-7.6 1.5-2.1 0.4-4.1 0.8-3.2 0.6-6.3 1.2-3.1 0.6-6.2 1.2-1.8 0.3-3.7 0.7-2.6 0.5-5.3 1.2c-1.8 0.4-1.8 0.4-5.5 0.8q-1.6 0.3-3.3 0.6-0.5 1-1 2-2 0-4 0-2.4 0.7-4.7 1.4c-3.2 1.1-6.2 1.8-9.6 2.1-8.4 0.7-16.7 3.1-24.7 5.5q1 1 2 2-2 0-4 0 0-1 0-2-7.4 1.4-14.8 3-1.3 0.3-2.6 0.6-2.5 0.5-5.1 1.1-1.2 0.2-2.4 0.5-1.1 0.2-2.2 0.5c-1.9 0.3-1.9 0.3-4.9 0.3q0 1 0 2-1 0-2 0 0-1 0-2c-3.7 1.1-3.7 1.1-6 4q-1 0-2 0 0-1 0-2-1 0-2 0-0.5 1-1 2 0-1 0-2c-2.3 0-4.6 0-7 0q2-0.5 4-1 0.5-2.5 1-5 1.5 0 3 0 0.2-0.9 0.3-1.8c0.8-2.6 1.7-3.4 3.7-5.2q1-1.3 1.9-2.6c2.1-2.4 2.1-2.4 4.3-3.5q0.9-0.4 1.8-0.9 0.2-0.9 0.4-1.9c0.8-2.7 1.9-3.5 4-5.2 2.5-1.9 3.8-3.2 5.6-5.9q1 0 2 0 0-2.5 0-5 2 0 4 0c1.6-2.5 1.6-2.5 3-5q1 0 2 0 0.5-1.5 1-3 1 0 2 0 0.4-0.9 0.8-1.8c1.4-2.5 3-4.3 5.2-6.2q1 0 2 0 0.2-1 0.3-1.9 0.4-1.1 0.7-2.1 1.5-0.5 3-1 0.5-1.5 1-3 1.5 0 3 0c1.6-1.7 3-3.5 4.4-5.4 1.8-1.8 3-2.2 5.6-2.6q0-1.5 0-3c2.2-1.9 4.5-3.4 6.8-5.1 2.5-2.1 3.2-3.8 4.2-6.9 3.5-0.5 3.5-0.5 7-1q0.5-1.5 1-3c2.6-1.2 2.6-1.2 5-2q0-1 0-2c2.3-2.6 3.6-3.9 7-5q0.5-1 1-2 1 0 2 0 0.5-1 1-2 1.5 0 3 0 0.1-0.9 0.2-1.8c1.1-3.1 2.9-3.8 5.8-5.2q1 0 2 0 0.5-1.5 1-3 2.5-1.6 5-3 1.1-0.8 2.2-1.7c1.8-1.3 1.8-1.3 3.8-1.3q0-1 0-2 0.9-0.4 1.8-0.8c2.3-1.1 2.3-1.1 4.2-3.3 2-1.9 2-1.9 6-1.9q0.5-1.5 1-3c1.9-1.1 1.9-1.1 4-2q1-1 2-2 2.7-1.8 5.4-3.5c2.9-1.8 5.8-3.6 8.6-5.5q1.5 0 3 0 0-1 0-2 2-0.5 4-1 0-1 0-2 1.6-0.8 3.3-1.6c3.5-1.7 6.9-3.6 10.3-5.7q7.1-4.2 14.5-8.1c0.9-0.6 0.9-0.6 1.9-1.1 2.9-1.6 4.7-2.5 8-2.5 0.3-1 0.3-1 0.7-1.9q0.6-1.1 1.3-2.1 2.5-0.5 5-1 2.4-1 4.8-2.1c5.6-2.7 11.3-5 17.1-7.4 3.6-1.5 7.2-3 10.7-4.6 4.6-2.1 9.4-3.6 14.2-5.2 3.2-1 6.2-2.1 9.2-3.7 5.7-1.9 11.7-3 17.6-4.2 3.3-0.7 3.3-0.7 5.8-1.8 3.5-1.4 7.2-2.1 10.9-2.9q1.1-0.3 2.3-0.6c11.6-2.4 23-4.7 34.8-5.3 2.5-0.1 2.5-0.1 4.4-0.7 2.5-0.6 4.8-0.6 7.3-0.7z"/>
	<path class="s1" d="m1181 1179q1.5 0.5 3 1c0.5 2 1 3.9 1.5 5.9 0.7 2.9 2.1 5.4 3.5 8.1 0.8 2.1 1.4 4.2 2.1 6.3 3.1 9.5 6.4 19 10.4 28.1 1.4 3.5 2.6 6.9 3.7 10.4 0.8 2.4 0.8 2.4 2.4 5.6 1.5 3.8 2.3 7.4 3 11.4 0.4 2.4 0.4 2.4 1.4 5.2q1.5 0.5 3 1-0.5 1-1 2c1.2 9.1 4.6 18.3 7.7 26.9 1.9 5.6 3.3 11.2 4.5 17 0.7 2.6 1.5 5 2.5 7.5 1.4 4 1.6 6.4 1.3 10.6q1 0.5 2 1c1 2.9 1 4.9 1 8q0.4 2.1 1 4.1c0.3 1.2 0.3 1.2 0.6 2.4 0.4 1.3 0.4 1.3 0.7 2.6 2.1 7.9 3.6 15.8 4.8 24 0.5 4.1 0.5 4.1 1.9 7.9 0.3 2.2 0.4 4.4 0.6 6.6 0.3 2.5 0.3 2.5 1.4 4.7 1.3 3.5 1.2 6.4 1.1 10q0 1.9 0 3.8c-0.1 1.4-0.1 1.4-0.1 2.9q1 0 2 0c-0.3 2.6-0.7 5.3-1 8q1 0 2 0 0 1 0 2 1 0.5 2 1-0.5 0.7-1.1 1.5c-1.3 3.6-0.6 6.8-0.1 10.6 1.2 9.6 1.6 19.1 1.9 28.8q0 1.7 0.1 3.4c0 1.4 0 1.4 0 3 0.1 2.7 0.1 2.7 0.7 5.1 0.7 3.4 0.6 6.8 0.6 10.3 0 1.1 0 1.1 0 2.2q0 2.2 0 4.5 0 3.5 0 7 0 2.2 0 4.5 0 1 0 2.1c0 4.9 0 4.9-1.1 6q-0.2 3.4-0.3 6.8 0 1-0.1 2.1-0.1 3.3-0.2 6.7 0 2.2-0.1 4.4c-0.2 8.1-0.2 8.1-0.3 16.3 0 3.1-0.2 5.4-1 8.3-1 3.9-1.2 7.3-1 11.4q-1 0-2 0 0.6 1.2 1.2 2.5c0.9 3.9 0.2 5.5-1.4 9.1-1.3 3.9-1.4 7.9-1.6 12-0.2 2.4-0.2 2.4-1.2 3.4q-0.5 4.1-0.9 8.2c-0.8 7.8-2.2 15.2-4.1 22.8q-1.3 5.6-2.6 11.2-0.6 2.8-1.2 5.6-0.3 1.3-0.6 2.6-0.6 2.6-1.2 5.2-0.3 1.2-0.6 2.4-0.3 1.1-0.5 2.2c-0.5 1.9-0.5 1.9 0.7 3.8q-1 0-2 0-0.2 1.4-0.4 2.7c-0.5 2.5-1 4.9-1.6 7.3q1 0.5 2 1-1.5 1-3 2c-0.8 2.9-1.4 5.6-2 8.6-0.9 4.6-1.8 9.1-3.4 13.6-2.5 7.3-4.2 14.9-6.1 22.4q-0.4 1.7-0.9 3.5-0.4 1.6-0.8 3.2c-0.8 2.7-0.8 2.7-2.8 5.7q-0.8 2.7-1.4 5.4c-1.5 6.4-3.5 12.5-5.6 18.6q-1.2 3.5-2.3 7.1c-0.7 2-1.7 3.9-2.7 5.9q1.5 0.5 3 1-1.5 0.5-3 1c-1.2 2.2-1.2 2.2-2.1 4.7q-0.5 1.3-1 2.7c-0.9 2.5-0.9 2.5-1.3 4.9-0.9 3.9-2.4 7.4-3.9 11.1-2.7 7-5.2 14-7.6 21.2-1.3 4.1-2.8 8.2-4.4 12.2-0.9 2.3-0.9 2.3-0.7 5.2q-1 0.5-2 1c-1.1 3.6-1.1 3.6 0 7q-1.5 1-3 2c-1.3 2.5-1.3 2.5-2.3 5.3q-0.5 1.4-1 2.9c-0.7 3-0.5 4.8 0.3 7.8q-1-1-2-2-0.6 1.7-1.3 3.5-1.5 4.1-3.1 8.2c-1.7 4.6-3.2 9.2-4.7 13.9q-0.3 1.2-0.7 2.4c-1.2 3.6-2.3 7.3-3.3 10.9-0.8 2.8-1.8 5.4-2.9 8.1q1 0.5 2 1-1 0.5-2 1c-1.1 3.6-1.1 3.6 0 7q-0.7 0.6-1.4 1.3c-1.8 1.9-2.2 3.2-2.6 5.7q1 0.5 2 1-0.7 0.5-1.5 1.1c-2.2 2.7-2 5-2.1 8.5-0.3 6.3-0.3 6.3-1.4 7.4-2.1 9.4-2.2 19-2.2 28.6q0 1.7 0 3.4c0.1 7.7 0.5 15.3 1.2 23q1 0 2 0 0.1 1.4 0.2 2.9c0.1 1.9 0.1 1.9 0.2 3.8q0.2 1.9 0.3 3.8c0.2 2.7 0.5 5 1.3 7.5q1 0 2 0 0.2 1.8 0.3 3.6c0.5 4 1.8 6.8 3.7 10.4q1 2.6 1.9 5.1c1.5 3.8 2.9 6.3 6.1 8.9q0.5 1 1 2-1 0-2 0 0.9 1 1.7 2.1c2.5 3.2 4.4 6.4 6.3 9.9q1.5-0.5 3-1-0.5-1.4-1-2.9c-9.5-29.8-9.8-65-2-95.2 1.1-3.8 1.1-3.8 1.5-7.4 0.6-3.9 1.6-7.6 2.7-11.3q2.5-8.1 4.7-16.3c2-7.2 4.1-14.1 7.1-20.9 1.9-4.6 3.4-9 4-14q1 0 2 0 0.4-1.5 0.8-3.1c1.1-3.7 2.4-7.3 3.7-11q2.3-6.4 4.5-12.9 1 0 2 0 0.1-1.6 0.1-3.2c0.7-5.2 3-9.2 5.3-13.8 1.8-3.5 3.3-7 4.7-10.6 1.5-3.9 3.2-7.6 4.9-11.4q1.1-2.5 2.2-5.1 0.9-1.9 1.8-3.9-1-0.5-2-1 0.9-0.1 1.9-0.2 1-0.4 2.1-0.8c0.9-1.8 0.9-1.8 1.3-4.2 1.4-5.2 3.5-9.6 6-14.4 2.6-5 4.5-10 6.4-15.2 1.8-4.4 3.9-8.4 6.2-12.5 1.2-2.8 1.3-4.7 1.1-7.7q1 0 2 0c3.7-7.2 7.1-14.4 10-22q1 0 2 0 0.2-1.9 0.4-3.9c0.2-2.3 0.2-2.3 0.6-4.1q1-0.5 2-1 1-2.7 2-5.4c1.2-3 2.5-5.9 3.9-8.8 3.3-7.1 6.3-14.3 9.2-21.5 0.8-2.2 1.8-4.2 2.9-6.3q-1 0-2 0 0-1 0-2 1 0 2 0 0.5-1 1-2 1 0 2 0 0.2-1.3 0.3-2.6c0.8-3.7 2-6.6 3.6-10 3.7-6.7 3.7-6.7 5.1-13.9 0-3 0.9-4.5 2.4-7 2-3.2 3-5.8 3.6-9.5q1 0 2 0 0.2-1.8 0.3-3.7c0.2-2.7 0.6-4.2 2.1-6.5 1.8-3.1 2.8-6 3.8-9.4q0.3-0.9 0.6-1.9 0.9-3 1.8-5.9 0.9-3 1.8-6 0.8-2.6 1.6-5.3 1-3.3 2.1-6.5c0.9-2.8 1.6-5.7 2.3-8.6 0.9-3.3 1.8-6.5 2.8-9.8 2.4-8.1 4.7-16.1 5.8-24.4q1 0 2 0c-0.1-1.3-0.1-1.3-0.1-2.7 0-5.8 1-11.6 2.1-17.3q0.5-0.5 1-1 0.8-4 1.4-8c0.2-1.2 0.2-1.2 0.4-2.5 1.6-10.1 2.3-20.3 3-30.5q0.2-2.9 0.5-5.8c0.8-8.4 0.9-16.9 0.9-25.4q0-3.6 0-7.3c0.1-11-0.8-21.6-2.2-32.5q-0.2-1.8-0.5-3.7c-1.8-14.8-4.4-29.2-7.9-43.7-1-4.5-2-9.1-2.9-13.7-0.3-1.2-0.3-1.2-0.5-2.5-0.8-3.8-1.4-7.4-1.2-11.4q-1-0.5-2-1c-0.6-2.4-0.6-2.4-1.1-5.3q-0.3-1.5-0.5-2.9c-0.4-2.8-0.4-2.8-0.4-6.8q-1-0.5-2-1-0.4-3.1-0.6-6.3c-0.6-4-1.7-7.9-2.8-11.9-0.6-2.7-0.7-5-0.6-7.8q-1-0.5-2-1c-0.4-2.3-0.7-4.5-0.9-6.8-0.8-7.5-2.1-14.8-3.8-22.1-1.2-5.5-1.5-10.5-1.3-16.1 3.9 3.1 6.9 6.1 10 10q1 0.5 2 1 0 1 0 2 2 0 4 0 0.5 2 1 4c3.1 1 4.9 1 8 0q-1 2-2 4 1 0.5 2.1 1c3.4 2.3 5.5 5 8.1 8.3 2.2 2.1 3.8 2.4 6.8 2.7q-0.5 2-1 4 0.8 0.3 1.7 0.7c3.9 2.2 6.7 5.5 9.5 9.1 1.6 2.3 1.6 2.3 3.8 3.2q0 1 0 2 1 0 2 0c0.9 1.2 0.9 1.2 1.8 2.4 2 2.8 2 2.8 4.8 3.6 2.4 1 2.4 1 3.5 3.4q0.4 1.3 0.9 2.6 2 1.5 4 3c1.6 2.3 2.8 4.6 3.9 7.2 1.4 2.3 2.7 2.7 5.1 3.8q0.5 1 1 2 1.5 1 3 2 0 1.5 0 3 1.5 0.5 3 1c1.3 1.6 1.3 1.6 2.6 3.5 1.7 2.8 1.7 2.8 4.4 4.5q0 1 0 2 1 0.5 2 1c4 5.5 4 5.5 4 8 0.8 0.3 0.8 0.3 1.7 0.6 3.4 2.1 5.2 5.2 7.4 8.5 1.6 2.4 3.2 4.6 4.9 6.9q1 0 2 0 0.4 0.8 0.8 1.6c3.6 6.7 7.5 13.8 12.9 19.1 1.3 1.3 1.3 1.3 1.3 3.3q1 0.5 2 1 1.5 2.5 3 5 1 1 2 2 1 2.5 2 5c1.3 3.2 1.3 3.2 4 5q2 1 4 2-1 0.5-2 1c1.9 3.5 3.9 6.8 6.1 10.1 1.9 2.9 2.8 5.6 3.9 8.9q0.7 0.6 1.3 1.3c2.4 2.4 3.7 5.4 5.1 8.5 2.8 5.7 2.8 5.7 5.9 11.3 2.2 3.7 3.7 6.6 3.7 10.9q1 0 2 0 0.3 1 0.7 2c2.1 6.1 4.6 11.9 7.3 17.7 1 2.3 1 2.3 1 5.3q1 0.5 2 1c1 3 1 3 1 6q1 0.5 2 1 0.2 1.4 0.4 2.9c0.3 3.1 0.3 3.1 2.1 4.5 1.8 2 2.1 3.2 2.6 5.9 0.5 2.9 1.2 5.5 2 8.4 0.9 3.3 1.1 5.9 0.9 9.3q1 0 2 0 0.4 1.7 0.9 3.4c0.8 3.6 0.8 3.6 3.1 5.6q-0.5 0.5-1 1 0.6 3.2 1.3 6.4 2 8.8 3.7 17.6 0.2 1.2 0.5 2.5c3.2 17 4.1 33.9 4.8 51.1 0.1 1.7 0.1 1.7 0.1 3.5q0.2 4.9 0.4 9.8 0.1 1.5 0.1 3.1 0.1 1.3 0.1 2.7c0 1.2 0 1.2 0.1 2.5-0.1 1.8-0.1 1.8-1.1 2.8q-0.4 3.1-0.6 6.3-0.2 1.9-0.4 3.9-0.3 3.1-0.5 6.2c-0.7 7.7-1.6 14.9-3.8 22.3-0.8 2.8-1.3 5.5-1.7 8.3-1.3 8.4-3.5 16.2-7 24-1.4 3.7-2 6-2 10q-1.5 1.5-3 3c-1.3 2.4-1.3 2.4-2.4 5.1q-0.7 1.5-1.3 3.1-0.7 1.6-1.4 3.2-0.6 1.5-1.3 3.1c-2.4 5.6-2.4 5.6-4.6 11.3-1 2.2-1 2.2-3 3.2q-1 2.5-2 5c-1.8 3.1-3.6 6.1-5.4 9.2-1.4 2.4-2 4.2-2.6 6.8q-1.8 2.2-3.7 4.4c-1.5 1.7-1.5 1.7-2.8 4.6-1.7 3.5-4 6-6.5 9q-0.7 1.4-1.4 2.9c-1.7 3.3-3.8 6-6 9-3.1 4.1-6 8.2-7.6 13.1q-1.5 1-3 2c-1.6 2.3-1.6 2.3-3 5q-0.9 1.6-1.8 3.2c-0.6 1.4-0.6 1.4-1.2 2.8q0.5 1 1 2c-0.9 0.1-0.9 0.1-1.9 0.2q-1 0.4-2.1 0.8-1.1 2.5-2 5c-2.1 2.3-4.4 4.3-6.7 6.4-2.4 2.7-3 4.1-3.3 7.6q-1.5 0.5-3 1c-2.6 2.9-4.6 6-6 9.6-1.1 2.6-2.5 3.9-4.5 5.8-7.6 8-15.5 19.3-19.5 29.6 0.3 2.2 0.3 2.2 1 4q-0.5 1-1 2-2 0-4 0-0.4 0.8-0.8 1.6c-1.2 2.4-1.2 2.4-3.3 5.4-2 2.7-2 2.7-2.4 5.2q-0.2 0.9-0.5 1.8-1 0.4-1.9 0.9c-3.1 1.6-3.1 3.9-4.1 7.1q-1.8 2.5-3.6 5c-2.6 3.7-4.5 7.9-6.4 12q1 0.5 2 1c-1.1 1-1.1 1-2.3 2.1-4.5 4.9-6 10.6-7.7 16.9q-1 0-2 0-0.4 1-0.8 2.1c-1.2 2.9-1.2 2.9-2.8 6-1.6 2.8-1.6 2.8-1.4 5.9q0 1 0 2-1 0-2 0c-1.8 3.3-2.8 6.6-3.9 10.2-1.1 3.9-2.3 7.4-4.2 10.9-2.2 4-2.8 8-3.4 12.5-0.5 2.4-0.5 2.4-2.5 5.4q-0.8 2.6-1.5 5.2-0.4 1.5-0.8 3-0.3 1.4-0.7 2.8-0.6 1.9-1.1 3.9c-0.8 2.7-1.4 5.3-1.9 8.1-0.3 1.6-0.3 1.6-0.6 3.2q-1 4.9-2 9.7-0.6 3-1.2 6c-3.2 15.4-8.3 42.8-1.2 57.1q0.5 3.1 0.9 6.2c0.7 4.8 1.6 9.2 3.1 13.8 1.3 4.2 2.3 7.6 2 12q1.5 0.5 3 1 0.1 1.2 0.2 2.4c0.9 3.9 2.2 7 4 10.5 0.8 2.1 0.8 2.1 0.8 5.1q1.5 0.5 3 1c1.1 2.3 1.1 2.3 2.2 5.3 2.3 6 5.5 11 9.2 16.3 1.6 2.4 1.6 2.4 1.6 4.4q1 0 2 0c1.4 1.9 1.4 1.9 3 4.4 2 3.4 2 3.4 5 5.6q0 1 0 2 1 0.5 2 1c1.5 1.7 2.9 3.5 4.4 5.3 1.7 1.8 3.3 2.6 5.6 3.7q1 2 2 4 2.4 2.1 5 4 1.5 1.5 3 3 1.6 1.3 3.2 2.6 1.4 1.2 2.8 2.4 0 1 0 2 1.4 0.4 2.7 0.7c3.3 1.3 3.3 1.3 5.2 3.5 1.9 2 1.9 2 4.1 1.8 2-0.2 4-0.6 6-1q-1 2.5-2 5c1.7 0.8 1.7 0.8 3.4 1.7q7.3 3.7 14.6 7.3 0 1 0 2c-7.7 1.7-14.9 2.3-22.8 2.2q-1.6 0-3.2 0-3.4 0-6.7 0-5.2 0-10.3 0-3.3 0-6.6 0c-1.5 0-1.5 0-3.1 0q-1.4 0-2.9-0.1c-1.2 0-1.2 0-2.5 0-1.9-0.1-1.9-0.1-2.9-1.1q-3.7-0.3-7.4-0.5c-1.1-0.1-1.1-0.1-2.3-0.2q-2.4-0.1-4.8-0.2-3.6-0.2-7.2-0.4c-7.8-0.5-15.5-0.8-23.3-0.7q0-1 0-2-1.9 0-3.8-0.1c-10-0.3-19-1.2-28.6-4.1-3.4-0.7-6.1-0.8-9.5-0.7-3.1-0.2-5.6-1.2-8.5-2.2-5.6-1.9-11.5-3-17.3-4.3-9.9-2.3-19.6-4.7-29.3-7.6q0 1 0 2-1 0-2 0 0-1.5 0-3c-3.6-0.7-7.3-1.3-11-2q0-1 0-2-1.7-0.2-3.5-0.4-6.2-0.8-12.5-1.6 0-1.5 0-3c-3 0-5.9 0-9 0q0-1 0-2-1-0.3-2.1-0.5c-5.5-1.4-10.6-3.1-15.7-5.5-3.6-1.6-7.3-3.1-11.2-4q-1 0.5-2 1c-1.5-1.4-1.5-1.4-3-3q0-1 0-2-3 0-6 0 0-1 0-2c-1.2-0.3-1.2-0.3-2.3-0.6q-1.5-0.4-3.1-0.8-1.5-0.4-3-0.8c-3-0.9-4.3-1.5-6.6-3.8-3-1.2-3-1.2-6-2q-1 0.5-2 1 0-1 0-2c-4-1.5-4-1.5-8-3q0-1 0-2-3-1-6-2-1 1-2 2-0.4-1-0.7-1.9c-1.1-2.3-1.1-2.3-3.2-2.7q-1.1-0.2-2.1-0.4-0.7-0.7-1.4-1.4c-1.8-1.8-3.4-2.7-5.7-3.9q-1-0.5-2.1-1-0.9-0.4-1.8-0.7-1 0.5-2 1c-3.9-3.8-3.9-3.8-5-6-2.9-1-4.9-1-8-1q0.5-1.5 1-3c-3.3-1.1-6.6-2.2-10-3q0-1 0-2-2 0.5-4 1 0.5-1.5 1-3-2.7-1.5-5.4-3-1.5-0.8-3-1.7c-2.4-1.5-2.4-1.5-4.6-1.3q0-1 0-2-0.9-0.2-1.8-0.3c-2.5-0.8-3.4-1.8-5.2-3.7q-3.4-2.5-6.9-5-0.9-0.7-1.8-1.3c-2.7-1.9-5.3-3.7-8.1-5.4-2.2-1.3-2.2-1.3-4.2-3.3q-1.5 0-3 0 0-1 0-2-1.5-0.5-3-1-0.5-1-1-2-1.5-0.5-3-1-2.5-2.5-5-5-1.6-1.1-3.3-2.2-1.3-0.9-2.7-1.8 0-1 0-2-0.8-0.4-1.6-0.8c-3-1.5-5.7-3.2-8.4-5.2q0-1 0-2-0.8-0.3-1.6-0.7c-5.5-3-10-6.8-14.4-11.3q-2.7-2.3-5.4-4.6c-1.6-1.4-1.6-1.4-3.6-4.4q-1.5-0.5-3-1 0-1 0-2-2-1-4-2 0-1 0-2-1.5-0.5-3-1-2.6-2.4-5-5-1.1-1.1-2.3-2.2c-1.7-1.8-1.7-1.8-1.7-3.8q-2-1-4-2 0-1 0-2-1.5 0.5-3 1-0.5-2.5-1-5-0.9-0.1-1.9-0.3c-2.1-0.7-2.1-0.7-3-2.5-1.8-3.6-4.7-6.2-7.4-9.2-1.7-2-1.7-2-1.7-4q-1 0-2 0 0-1 0-2-1 0-2 0c-3-3.5-3-3.5-3-6q-1.5-0.5-3-1c-1.4-1.6-1.4-1.6-2.7-3.4q-0.6-1-1.3-1.9c-1-1.7-1-1.7-1-3.7q-1 0-2 0c-1.6-1.9-3.1-3.8-4.6-5.9q-0.7-0.8-1.3-1.7c-3.1-4.1-3.1-4.1-3.1-6.4q-1 0-2 0c-0.4-0.9-0.4-0.9-0.8-1.8-1.1-2.2-1.1-2.2-2.6-3.6-3-3-5-6.7-7.3-10.3-0.9-1.4-0.9-1.4-1.8-2.9q-0.8-1.3-1.7-2.7c-1.8-2.7-1.8-2.7-3.8-5.2-2.1-2.6-3.5-5.2-5.1-8.1-1.4-2.6-2.7-5.1-4.5-7.5-1.9-2.5-2.1-4.9-2.4-7.9q-1 0-2 0c-0.3-0.9-0.3-0.9-0.7-1.8-1.9-4.9-4-9.6-6.5-14.3-2.4-4.8-3.6-8.5-3.8-13.9q-1 0-2 0-0.5 1.5-1 3-0.1-2.5 0-5 0.5-0.5 1-1-0.7-1.7-1.4-3.4c-2.9-7.8-4.3-16-5.9-24.2q-0.7-3.4-1.4-6.8c-6.5-31-6.6-64.2-2.3-95.6q0.1-1 0.3-2.1 2.2-16.4 4.7-32.9 0.5 0 1 0 0.2-1.1 0.4-2.2c0.7-4.2 1.4-8.3 2.7-12.4 1.1-4.2 1.1-8.1 0.9-12.4q0.5 1 1 2 1 0 2 0c0-3 0-5.9 0-9q1-0.5 2-1c0.9-2.2 0.9-2.2 1.6-4.8q0.4-1.2 0.8-2.6c0.7-2.6 0.7-2.6 0.5-5.2 0.1-3 1-3.4 3.1-5.4 0.9-2.4 0.9-2.4 1.6-4.9 0.6-2.6 1.3-4.9 2.5-7.2 1.3-2.7 1-5 0.9-7.9q1.5 0.5 3 1-0.1-1.9-0.2-3.8c0-4 0-4 1.6-5.9q0.8-0.6 1.6-1.3c1.9-3.8 2.2-6.8 2-11q2.5-1 5-2c0.3-2.6 0.7-5.3 1-8q1 0 2 0 1.3-2.9 2.5-5.8 0.7-1.5 1.4-3.2c1.3-3.1 1.3-3.1 1.1-7q1 0 2 0 0.5-1.5 1-3 1 0 2 0 0-2 0-4 1 0 2 0 0.2-1.2 0.4-2.4c0.6-2.6 0.6-2.6 1.6-4.6q1 0 2 0 0.4-1.2 0.8-2.4c1.5-4.3 3.3-8.5 5.2-12.6q1 0 2 0 0.2-1.1 0.4-2.2c0.8-3.9 0.8-3.9 1.6-7.8q1.5-0.5 3-1 0.5-1.5 1-3 1-0.5 2-1-0.1-1.1-0.1-2.3c0.1-2.8 0.7-4.3 2.1-6.7q1 1 2 2 0.5-2.5 1-5 1 0 2 0c0.4-0.9 0.4-0.9 0.8-1.8 1.6-3 3.6-5.5 5.8-8.1 1.6-2.4 2-4.3 2.4-7.1q1.5-0.5 3-1 1.6-3 3-6 1.4-2 3-4 0.8-1.1 1.6-2.3c0.7-0.8 0.7-0.8 1.4-1.7q1 0 2 0 0.1-0.8 0.3-1.7c0.9-2.9 2.4-5 4.1-7.6q1-1.3 1.9-2.7c0.8-1 0.8-1 1.7-2q1 0 2 0 0.5-3 1-6 1.5-0.5 3-1 1-1.5 2-3 1 0 2 0 0.2-0.9 0.4-1.8c0.6-2.2 0.6-2.2 2.6-5.2q-1.5-0.5-3-1 1.5 0 3 0 0.5-1.5 1-3 0.9-0.4 1.8-0.8c3.9-2.2 6.3-6.3 8.3-10.4 1.2-2.4 2.9-4 4.9-5.8q1 0 2 0 0.5-2 1-4 1 0 2 0c0.4-0.8 0.4-0.8 0.8-1.6 1.6-3.2 3.4-6.3 5.2-9.4q1.5 0 3 0c0.4-0.8 0.4-0.8 0.8-1.7 1.3-2.5 2.6-4.9 4.2-7.3q1 0 2 0-0.5-2-1-4 1.1-0.6 2.3-1.3c2.7-1.7 3.9-3.1 5.7-5.7q2.5-2.5 5-5 1-1.5 2-3 1 0 2 0 0.1-0.8 0.2-1.7c1.1-3.3 3.3-4.9 5.8-7.3q2.4-2.7 4.8-5.5 1.1-1.4 2.3-2.8c1.9-2.7 2.5-4.5 2.9-7.7q1.5 0 3 0c2.2-3 3.8-5.5 5-9q1.5 0.5 3 1 0.4-1.2 0.8-2.4 0.6-1.3 1.2-2.6 1.5-0.5 3-1 0.5-1.5 1-3c1.4-2.2 1.4-2.2 3-4q1 0 2 0 0.5-1.5 1-3 0.5-1.5 1-3 1.5-0.5 3-1 1.4-2 2.8-4.1c1.5-2.3 3.1-4.6 4.8-6.8q0.9-1.1 1.8-2.3 0.8-0.9 1.6-1.8 1 0 2 0c0.4-0.8 0.4-0.8 0.8-1.6 1.5-3 3.2-5.7 5.2-8.4q1 0 2 0 1-2.5 2-5 1 0 2 0 0.4-1.2 0.9-2.4c1.1-2.6 1.1-2.6 3.1-4.6q0.5-1 1-2 0.7-0.6 1.3-1.3c2.8-2.9 4.9-6.3 7.1-9.6q0.8-1 1.6-2.1 1 0 2 0 0.2-0.9 0.4-1.8c0.6-2.2 1.5-4.1 2.6-6.2q1.5 0 3 0 0.4-1 0.8-2.1 2.1-5 4.2-9.9 1 0 2 0 0.5-1.5 1-3 1-0.5 2-1c2.4-3.4 3-4.7 3-9q1-0.3 1.9-0.7c2.4-1.2 2.4-1.2 2.9-3.9q0.1-1.2 0.2-2.4 1 0 2 0c2.3-3.4 4-7 5.8-10.7 1.2-2.3 1.2-2.3 3.2-4.3 0.6-2.6 0.6-2.6 1-5q1.5 0 3 0c4.7-8.2 4.7-8.2 8-17q1 0 2 0 0-1.5 0-3 1 0 2 0 0.2-0.9 0.4-1.8c0.6-2.1 1.3-4 2.3-6 0.5-1.1 0.5-1.1 1-2.2q0.6-1.1 1.1-2.3 0.5-1 1.1-2.1 3-6.5 6.3-12.9c0.9-1.9 0.9-1.9 1.8-4.7q1 0 2 0c0.3-2.6 0.7-5.3 1-8q1 0 2 0-0.3-0.9-0.6-1.8c-0.5-2.8 0.2-3.7 1.6-6.2 2.8-5.9 5.1-11.8 7-18q-1 0-2 0 0.5-3 1-6 1 1 2 2 1-2.8 2-5.6 0.6-1.6 1.1-3.2c0.9-3.2 1.1-5.9 0.9-9.2q1 0 2 0 0.5-1.5 1-3z"/>
	<path class="s2" d="m1502 417q1 1.5 2 3 1-0.5 2-1 0 1.5 0 3-1 0-2 0 0.5 1.1 1 2.3c1 2.7 1 2.7 1 5.7q1 0.5 2 1c0 2.3 0 4.6 0 7q1 0.5 2 1c0.7 2.7 0.7 2.7 1.2 6.3q0.2 1 0.3 2 0.5 3.1 1 6.2 0.6 4 1.3 8.1 0.3 1.9 0.6 3.9c0.5 2.8 1 5.5 1.7 8.2 1.2 5.3 1.6 10.5 2 15.9q0.1 1.6 0.3 3.2c1.1 14.8 0.4 28.7-1.3 43.4-0.9 7-0.9 7-1.1 14.1q0 1.3 0 2.7-0.5 0.5-1 1-0.5 2.6-0.9 5.2-0.2 1.6-0.5 3.3-0.2 1.8-0.5 3.6c-2.1 13.8-4.2 27.3-8.2 40.7-0.8 2.9-1.4 5.7-2 8.7-0.7 3.9-2 7-3.9 10.5q-0.2 1.1-0.4 2.3c-0.7 3.1-1.8 5.9-3 8.9-2.3 5.9-4.4 11.8-6.2 17.8-1.9 5.9-4.3 11.6-6.9 17.2-1.7 3.9-3.2 7.8-4.5 11.8q-0.9 2-2 4-1.7 3.4-3.4 6.8-0.5 0.9-0.9 1.8c-4.3 8.4-4.3 8.4-6.7 17.4q-1.5 0.5-3 1 0 1.5 0 3-1 0-2 0-0.4 1.1-0.8 2.1c-2.2 5.3-5.2 10.2-8 15.2q-0.9 1.6-1.8 3.3c-3.2 5.6-6.4 11.1-10.1 16.5-1.7 2.6-3 5.3-4.4 8.1-1.3 2.5-3 4.7-4.9 6.8q1 0.5 2 1-1 0-2 0-0.5 1.5-1 3c-2.1 1.7-2.1 1.7-4 3q0.5 1 1 2-1 0-2 0 0 1.5 0 3-1 0-2 0-0.4 0.9-0.9 1.8c-1.1 2.2-1.1 2.2-3.1 5.2q-0.5 1-1 2-1 1-2 1.9c-2.2 2-2.2 2-3 5.1q-1 0-2 0-0.4 0.8-0.8 1.7c-3.3 6.5-6.7 12.5-12.2 17.3q0.5 1 1 2c-0.8 0.6-0.8 0.6-1.5 1.2-4.9 3.9-8 7.8-11.1 13.3-3.4 5.9-7.5 10.8-12.4 15.5-1.7 2.6-2.4 4-3 7q-1.5 0-3 0-0.5 1.5-1 3c-1 0.7-1 0.7-2.1 1.4-2.2 1.5-2.2 1.5-2.1 4.3q0.1 1.1 0.2 2.3c-1.1 0.4-1.1 0.4-2.3 0.8-3 1.3-4.6 2.6-6.7 5.2q0 2 0 4-1.5 0.5-3 1c-4.6 4.1-8.5 8.9-12 14q0 1 0 2c-2 1.8-4.1 3.5-6.2 5.1-2 2.1-2.2 3.2-2.8 5.9-1.4 1.4-1.4 1.4-3.1 2.8-7.1 5.7-12.2 12.9-17.6 20.2-2.8 3.6-5.8 7-8.9 10.3-1.6 1.6-1.6 1.6-1.4 3.7q-2 2-4 4-1.5 1.7-2.9 3.4c-1.9 2.3-3.8 4.3-5.9 6.4-2.4 2.1-2.4 2.1-3.2 5.2-2.3 2.5-4.8 4.8-7.3 7.1-2.1 2-2.1 2-1.7 5.9q-2.5 1.5-5 3-1 2.5-2 5-2.5 2-5 4c-1.3 2.1-1.3 2.1-2 4q-1 0-2 0-0.1 1.4-0.2 2.9c-0.4 1.5-0.4 1.5-0.8 3.1-1.9 1.1-1.9 1.1-4 2q-1.1 2.5-2 5-1 0.5-2 1 1 1 2 2-1.4 0.6-2.9 1.3c-3.3 1.5-3.3 1.5-5.1 4.7q1 1 2 2-2.5 1-5 2 0 1.5 0 3c-1.4 1.7-1.4 1.7-3 3q-1 0-2 0 0 2 0 4-2.4 2.6-5 5c-2.5 3.7-2.5 3.7-3 8q-1 0-2 0-0.1 0.9-0.2 1.8c-1 2.9-2.6 4-4.8 6.2-4.2 6-8.4 12.8-10 20q-1 0-2 0-0.3 1.3-0.7 2.6c-1.2 3.2-2.8 5.5-4.9 8.3-3.4 5.1-6.1 10.9-8.4 16.7-1.4 3.4-3.2 6.7-4.9 10-1.1 2.3-1.1 2.3-1.6 4.3-0.8 3.1-2.2 5.9-3.6 8.8q-0.8 1.8-1.6 3.6-0.7 1.3-1.3 2.7 1 0 2 0 0 1 0 2-1.5 0.5-3 1c-1.3 2.9-1.3 2.9-2 6q0.5 1 1 2c-0.9 2.1-0.9 2.1-2 4q-1 0-2 0 0 1 0 2 1.5 0.5 3 1 0 1 0 2-1.5 0-3 0c-2.8 7.2-5.1 14.5-7 22q-1.5-0.5-3-1c-0.8-2-0.8-2-1.4-4.5-1.2-4.6-3-8.3-5.5-12.3-1.4-2.7-1.6-5.2-2.1-8.2q-1.1-3.4-2.4-6.7-0.7-1.7-1.3-3.4c-1.2-3-1.2-3-3.3-5.9-0.8-2.9-1.5-5.9-2.1-8.9-0.8-3.1-0.8-3.1-2.3-6-1.9-3.7-3-7.5-4.1-11.5-1.2-4.2-2.4-8.4-4-12.5-1.8-4.8-3.2-9.8-4.6-14.8-0.4-1.4-0.4-1.4-0.8-2.8-1.2-4.1-2.3-8.3-3.1-12.5q-1.5 0.5-3 1 0-1 0-2 1 0 2 0-1.6-6.1-3.2-12.1-0.5-1.8-1-3.7c-1.6-5.8-3.2-11.5-4.9-17.3-2.2-7.4-3.6-15-5.1-22.7-1-5.2-2.1-10.4-3.4-15.5-1.1-4.4-1.9-8.6-2.5-13.1-0.5-4.7-0.5-4.7-2-9-1.2-3.5-1.1-6.8-1-10.4q0-1 0-2.1 0-2.6 0.1-5.1-1-0.5-2-1c-0.5-2.7-0.5-2.7-0.8-6.2q-0.2-2-0.4-3.9-0.2-2.2-0.4-4.3-0.2-2.1-0.4-4.2c-0.7-8.6-1.4-17.1-1.7-25.7-0.1-2.8-0.2-5.5-0.8-8.2-0.7-5.1-0.6-10.2-0.6-15.3q0-1.7 0-3.5 0-3.6 0-7.1 0-5.6 0-11.1 0-3.5 0-6.9 0-1.7 0-3.4 0-1.5 0-3.1 0-1.3 0-2.7c0.1-2.3 0.5-4.2 1.1-6.4q0.2-2.6 0.3-5.3 0.1-1.5 0.1-3.1 0.1-1.6 0.2-3.2 0-1.6 0.1-3.2 0.4-9.6 0.3-19.2 0.5 0 1 0c0-2.6 0-5.3 0-8q0.5 0 1 0c1.2-8 2.3-15.6 2-23.7 0-4 0.8-6 3-9.3q0.7-3.5 1.2-7c0.2-1 0.2-1 0.3-2q0.5-3.3 1-6.5 0.6-4.3 1.3-8.5 0.3-1.9 0.5-3.9c0.7-3.1 0.7-3.1 2.7-6.1q0 0.9 0 1.8c-0.1 4.5 0.1 8.7 1 13.2q-1 0-2 0-0.5 3-1 6 1 0 2 0 1.9-3.6 3.8-7.1c0.5-1 0.5-1 1.1-2q2.4-4.4 4.6-8.9c1.8-3.6 3.7-7.1 5.7-10.6q0.6-1 1.2-2.1c3.1-5.4 6.3-10.8 9.6-16.1q2.1-3.4 4.1-6.7 0.6-0.9 1.1-1.8 1.5-2.4 2.9-4.8c1.8-2.8 3.8-5.3 5.9-7.9q1.6-2.5 3.2-5c7.4-11.7 15.5-22.5 24.4-33.2q5.2-6.4 10.1-13.1 0.8-1.1 1.6-2.3c0.7-1 0.7-1 1.4-2q0.7-0.7 1.3-1.4 1 0 2 0 1-2.5 2-5 1.5 0 3 0c0.4-1.1 0.4-1.1 0.8-2.2 1.3-3.1 2.9-5.1 5.2-7.6q1-1.2 2.1-2.4c1.9-1.8 1.9-1.8 3.9-1.8q0.3-0.8 0.7-1.7c1.7-3 3.9-4.9 6.3-7.3q1.8-2 3.5-4.1c2.6-3 5.3-5.5 8.5-7.9 2.7-2.6 5.1-5.1 7.4-8 2.7-3.1 5.3-5.5 8.6-8q1 0 2 0 0.5-1.5 1-3c1.7-1.7 1.7-1.7 3.8-3.4q1-0.9 2.1-1.9 1-0.8 2.1-1.7 1.4-1.2 2.9-2.4c2.1-1.6 2.1-1.6 4.1-1.6q0.5-1.5 1-3c1.4-1.3 1.4-1.3 3.3-2.6 3.7-2.6 7.2-5.4 10.6-8.3 3.7-3.1 7.4-6.2 11.2-9.2q1.1-0.9 2.2-1.7c1.7-1.2 1.7-1.2 3.7-1.2q0-1 0-2c2-0.7 4-1.3 6-2q0-1 0-2c1.4-1.2 1.4-1.2 3.4-2.6q1.1-0.7 2.2-1.5 1.1-0.7 2.3-1.5 1.1-0.8 2.2-1.6c5.6-3.8 5.6-3.8 7.9-3.8q0-1 0-2c2.6-1.7 5.1-3.2 7.8-4.7q2.4-1.4 4.8-2.7 1.1-0.7 2.3-1.4c2.6-1.5 5.1-3.1 7.6-4.7 28.4-18.2 59.2-33.8 91-45.1 4.4-1.6 8.4-3.3 12.5-5.4q2.3-0.8 4.7-1.4c3.5-1 6.9-2.2 10.3-3.5 6.3-2.3 12.7-4.1 19.3-5.8q1.6-0.4 3.4-0.9c5.4-1.5 10.7-2.8 16.3-3.4q0-3 0-6z"/>
	<path class="s2" d="m488.3 827.9q1.7 0 3.4 0c1.8 0 1.8 0 3.7 0q1.8 0 3.7 0 4.9 0 9.9 0 3 0 6 0 5.8 0 11.6 0 1.8 0 3.7 0c1.7 0 1.7 0 3.4 0q1.4 0 2.9 0c2.4 0.1 2.4 0.1 4.4 1.1q3.4 0.2 6.8 0.4c6.9 0.3 13.6 1.1 20.4 2 1.3 0.2 1.3 0.2 2.7 0.4 4.3 0.6 8.1 1.4 12.1 3.2q2.9 0.7 5.8 1.2c7 1.5 13.9 3.1 20.8 4.9q1.5 0.3 3.1 0.7 1.5 0.4 3.1 0.8 1.3 0.3 2.7 0.7c2.6 0.7 5 1.7 7.5 2.7q1.9 0.6 3.9 1.1 1 0.3 2.1 0.7 1.1 0.3 2.2 0.6c5.6 1.6 10.9 3.2 16 5.8 2 0.9 3.7 1.4 5.8 1.8 1-0.5 1-0.5 2-1q0.6 0.7 1.2 1.4c2.2 2 3.9 2.2 6.8 2.6q0 1.5 0 3c3.3 0 6.6 0 10 0q-0.5 1-1 2c3.4 1.5 3.4 1.5 7 2q0 1 0 2 0.8 0.2 1.7 0.4c2.6 0.7 4.9 1.7 7.4 2.9 4.6 2.1 9.2 4 13.9 5.8 2 0.9 2 0.9 4 2.9q3.7 1.9 7.4 3.7 2.1 1.1 4.3 2.2 1.1 0.5 2.2 1.1 2.9 1.4 5.7 2.9c1.6 0.8 1.6 0.8 3.2 1.6q1.4 0.7 2.8 1.5c2.4 1.2 2.4 1.2 5.4 1 0.4 0.9 0.4 0.9 0.7 1.9 1.5 2.5 2.7 3.1 5.3 4.1q0 1 0 2 1.1-0.1 2.3-0.2c2.7 0.2 2.7 0.2 4.2 1.8q0.7 0.7 1.5 1.4c2.7-0.2 2.7-0.2 5-1q0.5 2 1 4 1-0.5 2-1 0 2 0 4 0.9 0.4 1.7 0.9 2.3 1.1 4.4 2.2c1.9 1 1.9 1 3.9 0.9q1.1 1.1 2.2 2.3c2.7 2.8 2.7 2.8 6 4.3q1.4 0.7 2.8 1.4 0.5 1.5 1 3 2.5 1.1 5 2c4.4 2.2 7.5 4.5 11 8 2.2 1.5 4.3 2.9 6.6 4.3 3.3 2.3 6.4 4.8 9.5 7.3 1.9 1.6 1.9 1.6 4.9 2.4q2.5 2.5 5 5 1.5 0.5 3 1 2.5 2.5 5 5 1.4 0.8 2.8 1.7 1.1 0.6 2.2 1.3 0 1 0 2 1.5-0.5 3-1 1 1 2 2 1.5 0 3 0-1 1-2 2c2.5 2.7 4.7 4.4 8 6q1.5 1.5 3 3c3.3 3 6.6 5.9 10.4 8.2 1.3 0.9 1.3 0.9 2.6 1.8q0 1 0 2c0.8 0.4 0.8 0.4 1.7 0.8 2.5 1.3 4.9 2.7 7.3 4.2q1 0.5 2 1-0.5 1-1 2c0.8 0.4 0.8 0.4 1.7 0.7 2.7 1.5 4.9 3.4 7.3 5.3q1 0.5 2 1 0 1 0 2 2.5-0.5 5-1 0.2 1.2 0.4 2.4c0.3 1.3 0.3 1.3 0.6 2.6q1 0.5 2 1 0 1 0 2c0.9 0.5 0.9 0.5 1.9 0.9q2 1.1 4.1 2.1 0-1.5 0-3 1 0 2 0-0.5 2.5-1 5 2 1 4 2 0 1 0 2c0.8 0.3 0.8 0.3 1.6 0.7 2.4 1.3 2.4 1.3 5.3 3.9 3.4 2.6 4.1 2.6 8.1 2.4q1 1.5 2 3 1.5 0.5 3 1 0 1.5 0 3 3 1 6 2-1 2-2 4 2.5 0 5 0 0 1.5 0 3c1 0.2 1 0.2 1.9 0.3q1.1 0.4 2.1 0.7 0.5 1.5 1 3 1 0 2 0c0.1 0.9 0.1 0.9 0.2 1.9 0.6 2.4 0.6 2.4 3.2 3.3q1.3 0.4 2.6 0.8c2.5 1.3 4.1 2.9 6 5q0 1 0 2c0.8 0.4 0.8 0.4 1.7 0.8 2.5 1.3 4.9 2.6 7.3 4.2q0 1 0 2 2.5 0 5 0-0.5 1.5-1 3c0.9 0.5 0.9 0.5 1.9 0.9q2 1.1 4.1 2.1 0 1 0 2 0.9 0.1 1.7 0.2c2.9 1 4.3 2.6 6.3 4.8q1 0.5 2 1 0 1 0 2 1 0.3 2.1 0.7c3.7 1.7 6.7 3.9 10 6.3q1.9 1.3 3.7 2.7c1.6 1.1 1.6 1.1 3.2 2.3q1.5 1 3 2 0 1 0 2 3 0 6 0c0.1 0.9 0.1 0.9 0.2 1.8 1.2 3.2 2.9 3.7 5.8 5.2q0.9 0.5 1.7 1.1c3.5 2.1 5.2 2.9 9.3 2.9q-0.5 2-1 4 1.5-0.5 3-1 0.5 1.5 1 3 2-0.5 4-1 0.4 0.9 0.7 1.9c1.6 2.5 2.6 2.8 5.3 4.1 2.3 1.5 4.5 3 6.8 4.6 2 1.3 4 2.4 6.2 3.4q0 1 0 2 2 0 4 0 0 1 0 2 1.1 0.4 2.2 0.9 3.9 1.5 7.8 3.1 0 1 0 2 1.5-0.5 3-1c0.6 0.7 0.6 0.7 1.2 1.3 2.1 2 4.2 3 6.7 4.3q1.3 0.6 2.6 1.2c1.3 0.6 1.3 0.6 2.5 1.2q1 0.5 2 1c2.5 1.2 5 2.3 7.6 3.3 5 2 9.7 4.3 14.4 6.8 1.9 1 1.9 1 4 0.9q0.5-1 1-2 1.5 0.5 3 1 0 1.5 0 3 2.1 1.1 4.2 2.1 1.2 0.5 2.4 1.1c2.7 0.9 3.8 0.7 6.4-0.2q-0.5 1.5-1 3 1.3 0.2 2.5 0.4c3.7 0.6 7.2 1.6 10.8 2.6q1.9 0.5 3.8 1.1c2.9 0.9 2.9 0.9 3.9 1.9q3.5 0.5 7 1 1.5 0.5 3 1 0 1 0 2 2.5 0 5 0 0 1 0 2c-5.3 2.7-10.5 5-16 7q-2.6 1-5.3 2-1.2 0.5-2.4 0.9c-2.4 1.1-4.3 2.5-6.3 4.1q0-1 0-2-1 0-2 0 0 1 0 2-1.9 0.4-3.9 0.7c-5.9 1.4-12.8 3-17.1 7.3q-3.2 0.9-6.4 1.6-1.8 0.4-3.5 0.8c-3.1 0.6-3.1 0.6-6.1 0.6q-0.5 1-1 2c-3.1 0.7-5.9 1-9 1q0 1 0 2-1.5 0-3 0-0.5 1-1 2-1.2-0.1-2.5-0.2c-5.1 0.3-9.9 1.6-13.5 5.2q-0.5-0.5-1-1-0.5 1-1 2c-2 0.3-2 0.3-4.6 0.5-7.4 0.6-14.2 2.4-20.4 6.5q0-1 0-2-1.8 0.5-3.6 1c-15.3 4.4-15.3 4.4-22.6 5.6-2 0.4-2 0.4-4.8 1.4q-0.5 1-1 2 0-1 0-2c-2.3 0.3-4.6 0.7-7 1q-0.5 2.5-1 5-1 0-2 0-0.5-2-1-4-1.8 0.7-3.7 1.4c-5 1.7-10 2.4-15.2 3.1-3.1 0.4-3.1 0.4-5.9 1.5-4.2 1.3-8.3 1.9-12.7 2.4q-1.4 0.2-2.8 0.4c-9.9 1.3-19.9 2.3-29.8 3.2q-1.8 0.2-3.7 0.4-1.7 0.1-3.3 0.3c-2.8 0.2-2.8 0.2-4.9 0.8-2.6 0.6-5 0.7-7.6 0.7q-1.6 0.1-3.2 0.1-3.3 0.1-6.7 0.2-1.6 0.1-3.2 0.1-1.4 0.1-2.9 0.1c-2.6 0.1-2.6 0.1-4.4 2.3-3.1 0.1-3.1 0.1-6 0q0-1 0-2c-4.3 0.2-4.3 0.2-8 2q-2.7 0.1-5.3 0.1-1.7 0-3.3 0c-1.7 0-1.7 0-3.5 0q-1.7 0-3.4-0.1-4.3 0-8.5 0 0-1 0-2c-2.6 0-5.3 0-8 0q-0.5 1-1 2 0-1 0-2-1.1 0.3-2.3 0.6c-2.7 0.4-2.7 0.4-5.7-0.6q-3-0.2-5.9-0.3-1.8 0-3.6-0.1-3.6-0.1-7.3-0.2-1.7-0.1-3.5-0.1-1.6-0.1-3.2-0.1c-2.5-0.2-2.5-0.2-3.5-1.2-3.1-0.5-6.3-0.8-9.4-1.1q-1.3-0.1-2.7-0.2c-6-0.6-11.9-0.8-17.9-0.7q0-1 0-2-1.7 0-3.4 0.1c-4.8 0-9.3-0.7-14-1.5q-1.2-0.2-2.4-0.4c-4-0.6-8-1.4-12-2.3-3.2-0.7-6.4-1.2-9.8-1.5q-1.2-0.1-2.5-0.3-1 0-1.9-0.1 0-1 0-2 1.5 0.1 3 0.3 1.9 0.1 3.8 0.3 1.9 0.1 3.8 0.3c3.4 0.3 3.4 0.3 6.4-0.9q-0.8-0.4-1.6-0.8-3.8-1.7-7.5-3.5c-1.3-0.5-1.3-0.5-2.6-1.1-4.7-2.3-9-4.6-13.3-7.6q-2.9-1.5-5.9-2.9c-4.3-2.1-8.4-4.4-12.4-7-1.8-1.2-3.7-2.2-5.7-3.1q0-1 0-2-1.4-0.5-2.9-0.9c-3.1-1.1-3.1-1.1-5.1-2.1q0-1 0-2c-2-0.7-4-1.3-6-2q0-1 0-2-1.4-0.4-2.8-0.8c-2.9-1.1-4.9-2.1-7.2-4.2q0-1 0-2-1.3-0.4-2.6-0.8c-3.6-1.3-6.3-3-9.5-5.2q-0.8-0.6-1.6-1.2c-4.8-3.4-9.5-7-14.2-10.6-2.9-2.3-2.9-2.3-6.1-4.2q0-1 0-2-2-0.5-4-1 0-1 0-2c-0.8-0.4-0.8-0.4-1.6-0.8-3-1.5-5.7-3.2-8.4-5.2q0-1 0-2-0.9-0.5-1.9-0.9-2-1.1-4.1-2.1 0-1 0-2-0.8-0.3-1.7-0.7c-2.9-1.6-5.1-3.7-7.6-6-7.9-7.4-7.9-7.4-16.3-14.3-2.7-2.2-4.7-4.7-6.9-7.3-1.6-1.9-1.6-1.9-4-3.7-2.1-1.7-3.6-3.3-5.4-5.4-2-2.4-4-4.4-6.4-6.4-4.1-3.3-7.2-7.4-10.5-11.5-2.2-2.8-4.7-5.2-7.2-7.7q-2.6-2.9-5.2-5.9-1.8-2.1-3.5-4-0.8-0.9-1.7-1.9-0.7-0.7-1.4-1.6c-1.4-1.8-1.7-3.4-2.2-5.6q-2-1-4-2-1-2-2-4-1.1-1.1-2.3-2.3c-3.2-3.2-6.2-6.8-8.7-10.7q0-1 0-2-1 0-2 0-1.4-2-2.7-4c-1.6-2.4-3.2-4.7-4.8-7q-1.8-2.5-3.5-5-0.7-0.9-1.3-1.9c-2.7-3.9-2.7-3.9-2.7-6.1q-1 0-2 0-2-2.9-3.8-5.9-1-1.8-2.1-3.6-0.5-0.9-1.1-1.8c-1.3-2.3-2.8-4.4-4.3-6.6-2.4-3.6-4.6-7.3-6.7-11.1q-0.6-0.9-1.1-1.9c-2.9-4.9-2.9-4.9-2.9-7.1q-1 0-2 0-0.7-1.5-1.5-3.1c-3.1-6.3-6.2-12.6-9.9-18.6-3.9-6.4-6.7-13.3-9.6-20.2q-0.5-1.3-1.1-2.6-0.5-1.2-1-2.4c-0.9-2.3-0.9-2.3-2.9-5.1q0-1.5 0-3-1 0-2 0c-0.3-1-0.3-1-0.7-2q-3.4-9.2-7-18.4c-3.8-9.9-7.6-19.8-10.5-30q-1.5-5.1-3.1-10.1-2.4-8.1-4.8-16.1-0.5-1.7-1-3.4-1.1-3.5-1.9-7-3 0-6 0 0.5-2.5 1-5 1.4 0.3 2.8 0.7c6.4 0.9 12.6-1.8 18.6-3.8 2.6-0.9 2.6-0.9 5.4-1.4q1.1-0.2 2.2-0.5 0.5-1 1-2 1 0 2 0 0.5-1 1-2 1 1 2 2c2.7-0.2 5.3-0.4 7.9-0.8q2.3-0.3 4.7-0.6 1.1-0.2 2.3-0.3c3.7-0.5 7.4-0.8 11.1-1.1 3.4-0.4 5.8-1.3 9.3-1.3z"/>
	<path class="s2" d="m1506 1095.4q1 0.1 2.1 0.1c29.9 1 29.9 1 37.9 3.5q0-1 0-2c2.6 0 5.3 0 8 0q0 1.5 0 3 1.1 0 2.2-0.1c6.3-0.1 12.1 0.3 18.2 1.5 3.7 0.6 7.3 1.1 11 1.6 10.7 1.4 21.1 3.5 31.6 6q-2 1-4 2-0.5-1-1-2c-3.3 0.3-6.6 0.7-10 1q0 1 0 2c1.1 0.3 1.1 0.3 2.3 0.6 4.2 1.6 7.9 3.6 11.8 5.8 5.8 3.2 11.7 6.2 17.9 8.6q0 1 0 2 1.3 0.4 2.6 0.7c3.8 1.4 7.1 3.3 10.6 5.5 1 0.6 1 0.6 2 1.2q7.4 4.5 14.7 9.3c2 1.3 2 1.3 4.1 2.3q0 1 0 2 1.1 0.4 2.2 0.8c4.7 2 8.8 4.9 13 7.8 3.3 2.4 3.3 2.4 6.8 4.4q0 1 0 2 2 0.5 4 1 0 1 0 2c2 0.7 4 1.3 6 2q0 1 0 2 1.5 0 3 0 0 1 0 2c0.8 0.1 0.8 0.1 1.7 0.2 2.6 0.9 3.8 2.2 5.7 4.2 2.9 2.9 6.3 5.3 9.6 7.8q1 0.9 2 1.8 0 1 0 2c0.9 0.4 0.9 0.4 1.8 0.8 2.3 1.2 4.2 2.5 6.2 4.2q0 1 0 2 2 0.5 4 1 0 1 0 2 2 0.5 4 1 0 1 0 2 1.5 0.5 3 1 0 1 0 2c1 0.4 1 0.4 1.9 0.8 2.1 1.2 2.1 1.2 3.1 4.2q2 1.1 4 2 2.1 1.6 4.1 3.4c1 0.9 1 0.9 2.1 1.7 1.8 1.9 2.7 3.6 3.8 5.9q2 1.1 4 2c2.3 2 2.3 2 4 4q0 1 0 2c0.9 0.4 0.9 0.4 1.8 0.7 2.5 1.5 4.3 3.1 6.2 5.3q0 1 0 2 1 0 2 0c1.4 1.4 1.4 1.4 3.1 3.4 2.7 3.2 5.5 6.2 8.5 9.2 3.7 3.6 6.5 7.2 9.4 11.4q1.1 1.1 2.3 2.3c1.7 1.7 1.7 1.7 1.7 3.7q1.5 0.5 3 1c1.2 2.6 1.2 2.6 2 5q1 0 2 0c2 2.3 3.8 4.5 5.6 6.9 0.8 1 0.8 1 1.6 1.9 3.8 4.9 3.8 4.9 3.8 7.2q1 0 2 0 0.5 2 1 4 1 0 2 0c1.7 2 1.7 2 3.6 4.7q0.9 1.4 1.8 2.7c1.6 2.6 1.6 2.6 2.1 4.9 0.3 0.8 0.3 0.8 0.5 1.7q1.5 0.5 3 1c3 4.3 3 4.3 3 7q1 0 2 0c1.1 2.7 2.1 5.3 3 8q1 0 2 0c1.7 2.4 3.2 4.8 4.7 7.2 0.7 1.1 0.7 1.1 1.3 2.3q4.8 7.7 9.3 15.6 1.8 3.1 3.7 6.2c1 1.6 1 1.6 1.9 3.3q0.9 1.4 1.8 2.9c1.3 2.5 1.3 2.5 1.3 5.5q1 0 2 0c4.3 8.6 8.6 17.2 12.6 25.9 1.5 3.1 3 6.3 4.5 9.3 8 15.8 14.3 32.4 20 49.1q1 2.9 2.1 5.9c3.2 8.8 5.8 17.6 8.1 26.7q0.6 2 1.1 4.1 1.3 5 2.6 10 0-2 0-4 1 0 2 0 0.5 1.5 1 3 1 0.5 2 1 0.5-1 1-2 3 0.5 6 1c-2.6 2.6-5.6 3.5-9 5q-1 1-2 2 0-1 0-2c-2.3 1-2.3 1-4 4q0-1.5 0-3-1 0-2 0-0.5 2-1 4-1 0-2 0 0-1 0-2c-7.8 1.9-7.8 1.9-15.5 4.2-2.5 0.8-2.5 0.8-6.5 0.8q-0.5 1-1 2-1.5 0-3 0-2.8 0.2-5.7 0.5-1.5 0.1-3 0.3-1.1 0.1-2.3 0.2 0 1 0 2-1.5-0.5-3-1c-5.7-0.5-11.3 0.1-16.9 1-7.8 1.1-15.5 1.2-23.3 1.2-1.8 0-1.8 0-3.6 0-8.5-0.1-8.5-0.1-11.8-0.7-2.5-0.5-4.6-0.5-7.2-0.4-7.5 0-14.8-1.2-22.1-2.4q-2.2-0.3-4.5-0.6c-8.8-1.4-17.6-3-26.4-4.9-5.1-1-10.1-1.7-15.3-1.9-1.9-0.3-1.9-0.3-3.9-2.3q-1.5 0.5-3 1 0-1 0-2-2.7-0.8-5.4-1.5-1.5-0.4-3-0.8c-2.5-0.8-2.5-0.8-4.6-0.7q0-1 0-2c-3.3-0.7-6.6-1.3-10-2q0 1 0 2-1-0.5-2-1 0.5-1 1-2c-2.6-0.3-5.3-0.7-8-1q0-1 0-2-1.3-0.2-2.7-0.4c-3-0.6-5.5-1.4-8.3-2.6q-1.3-0.4-2.6-0.8c-4.1-1.4-7.9-3.3-11.8-5.2-2.8-1.2-2.8-1.2-6.6-1q-0.5-1-1-2c-3.3-1.9-6.9-3.2-10.4-4.6q-1.7-0.6-3.4-1.3c-2.8-0.9-5.3-1.6-8.2-2.1q-0.5-1.5-1-3-1.5 0-3 0 0-1 0-2-0.9-0.2-1.7-0.4c-2.3-0.6-2.3-0.6-4.2-1.7-2.5-1.1-4.4-1-7.1-0.9q0-1.5 0-3c-4.1-1.4-4.1-1.4-8.2-2.6-1.8-0.4-1.8-0.4-3.8-1.4q0.5-1 1-2-2.5-0.5-5-1 0-1 0-2c-2.5-0.7-4.4-1-7-1-2.7-1.9-2.7-1.9-5-4q0-1 0-2-1.3-0.4-2.7-0.8c-4.3-1.6-7.7-3.8-11.4-6.4-2.8-2.1-2.8-2.1-5.9-1.8q0-1.5 0-3c-2.6-0.3-5.3-0.7-8-1q0-2 0-4-1.1-0.4-2.2-0.8c-4.1-1.8-7.3-3.8-10.7-6.7-3-2.4-5.7-3.9-9.1-5.5q-1-0.5-2-1 0-1 0-2c-2.3-1.2-4.5-2.2-7-3q-1.1-1.1-2.2-2.3c-2.9-2.8-5.7-4.6-9.2-6.6q-0.8-0.5-1.6-1.1 0-1 0-2-2 0-4 0-0.5-1-1-2-1.5 0.5-3 1-0.5-2-1-4-1.5 0-3 0 0-1.5 0-3-1.5-0.5-3-1-1.5-1.5-3-3c-2.7-2.2-5.6-4.4-8.4-6.5q-1.1-0.9-2.3-1.8c-3-2.3-6-4.5-9.3-6.5-2.4-1.4-2.8-2.7-4-5.2q-2-0.5-4-1-2.1-1.9-4-4-1-0.5-2-1 0-1 0-2-1.5 0-3 0c-1.4-1.3-2.7-2.6-4-4-4.9-4.5-10-8.6-15.3-12.5-0.8-0.8-0.8-0.8-1.7-1.5q0-1 0-2-0.9 0.2-1.8 0.5c-2.2 0.5-2.2 0.5-5.2 0.5-0.4-1.2-0.4-1.2-0.8-2.4-1-2.9-1-2.9-4.2-4.6q-0.5-1.5-1-3-1.5 0-3 0 0-1.5 0-3-3-2-6-4-1-2-2-4c-2.4-1.2-2.4-1.2-5-2-3.4-1.1-4.1-2-6-5q0-1 0-2c-0.8-0.3-0.8-0.3-1.6-0.7-5.9-3.2-11.7-7.5-16.4-12.3q0-1 0-2-2.5-1-5-2 0-1 0-2-1.4-0.1-2.8-0.2c-3.2-0.8-3.2-0.8-4.8-3.1q-0.7-1.3-1.4-2.7-2.5-2-5-4 0-1 0-2-0.9-0.2-1.8-0.3c-2.5-0.8-3.7-1.7-5.6-3.5-3.1-2.8-6-5.2-9.6-7.2-2.3 0.1-2.3 0.1-4 1q1-1.5 2-3-2.1-1.7-4.2-3.4-1.2-1-2.4-2c-2.3-1.5-3.8-2.2-6.4-2.6q0-1.5 0-3-1.5 0-3 0-1-1.5-2-3-1.5-0.5-3-1 0-1 0-2-1.5 0-3 0 0-1 0-2-1.1-0.1-2.2-0.2c-3.7-1-5.1-3.1-7.8-5.8-1.8-0.9-1.8-0.9-3.7-1.6-3.3-1.4-3.3-1.4-5.3-4.4-2.4-2.2-4.5-3.8-7.5-5-3-1.2-5-2.9-7.5-5q-1-0.5-2-1-0.5 1-1 2 0-2 0-4c-2.5-1.3-5-2.4-7.7-3.5-3.3-1.5-3.3-1.5-4.3-3.5q-1.6-0.4-3.2-0.9c-3.9-1.1-6-2.3-8.8-5.1q0-1 0-2-2.5 0-5 0 0-1 0-2-1 0-2 0-0.5 1-1 2-0.3-0.9-0.6-1.9c-1.9-2.9-4.1-3.2-7.4-4.1q0-1 0-2-1.5 0-3 0 0-1 0-2-1.3-0.1-2.6-0.3c-3.9-0.8-6.1-2.5-9.4-4.7-3.7-1.7-6.9-3-11-3q0.5-1 1-2c-2.5 0.5-2.5 0.5-5 1q-0.5-1.5-1-3c-3.3-1.7-5.2-2-9-2q0-1 0-2c-1-0.2-1-0.2-2.1-0.4-3.3-0.7-6.6-1.5-9.9-2.6q-0.5-1-1-2-3-0.6-6-1c-3.8-1-7.6-2.2-11.3-3.4q-5-1.7-10.1-3.3-1.2-0.4-2.4-0.7c-2.3-0.7-2.3-0.7-5.2-0.6q0-1 0-2 0.8-0.3 1.7-0.6 3.9-1.4 7.8-2.7c1.3-0.5 1.3-0.5 2.7-0.9q3.9-1.4 7.8-2.8 1.2-0.4 2.4-0.8c4.1-1.5 4.1-1.5 7.6-4.2 3.6-1 7.2-1.9 10.9-2.5 1.1-0.2 1.1-0.2 2.1-0.5 0.5-1 0.5-1 1-2q3.3-1.1 6.7-2.1 1.8-0.5 3.7-1c3.2-0.8 6.3-1.4 9.6-1.9q0-1 0-2 1.6-0.4 3.3-0.8c11.5-3.1 22.6-6.9 33.7-11.2q0-1 0-2 1.3 0.3 2.5 0.6c4.1 0.5 7.1-0.5 10.8-1.9 14.5-5.2 14.5-5.2 21.7-4.7q0.5-1 1-2c2.4-0.6 2.4-0.6 5.9-1.3 7.8-1.4 15.7-3.1 23.5-4.8q1.8-0.4 3.7-0.8 1.7-0.4 3.4-0.8 1.6-0.3 3.1-0.7c2.3-0.4 2.3-0.4 3.4-1.6q2.6-0.5 5.1-0.9 1.6-0.3 3.2-0.5 3.4-0.5 6.7-1.1c5.2-0.8 10-1.8 15-3.5q3.8-0.4 7.7-0.6c5.2-0.2 5.2-0.2 10.3-1.4q2-0.3 4-0.5 1.2-0.1 2.4-0.2c1.3-0.1 1.3-0.1 2.7-0.2q1.3-0.2 2.7-0.3 4.5-0.4 8.9-0.8c1.5-0.1 1.5-0.1 3-0.3 25.5-2.3 50.7-3.1 76.3-2.3z"/>
	<path class="s2" d="m1181 1179q1.5 0.5 3 1c0.5 2 1 3.9 1.5 5.9 0.7 2.9 2.1 5.4 3.5 8.1 0.8 2.1 1.4 4.2 2.1 6.3 3.1 9.5 6.4 19 10.4 28.1 1.4 3.5 2.6 6.9 3.7 10.4 0.8 2.4 0.8 2.4 2.4 5.6 1.5 3.8 2.3 7.4 3 11.4 0.4 2.4 0.4 2.4 1.4 5.2q1.5 0.5 3 1-0.5 1-1 2c1.2 9.1 4.6 18.3 7.7 26.9 1.9 5.6 3.3 11.2 4.5 17 0.7 2.6 1.5 5 2.5 7.5 1.4 4 1.6 6.4 1.3 10.6q1 0.5 2 1c1 2.9 1 4.9 1 8q0.4 2.1 1 4.1c0.3 1.2 0.3 1.2 0.6 2.4 0.4 1.3 0.4 1.3 0.7 2.6 2.1 7.9 3.6 15.8 4.8 24 0.5 4.1 0.5 4.1 1.9 7.9 0.3 2.2 0.4 4.4 0.6 6.6 0.3 2.5 0.3 2.5 1.4 4.7 1.3 3.5 1.2 6.4 1.1 10q0 1.9 0 3.8c-0.1 1.4-0.1 1.4-0.1 2.9q1 0 2 0c-0.3 2.6-0.7 5.3-1 8q1 0 2 0 0 1 0 2 1 0.5 2 1-0.5 0.7-1.1 1.5c-1.3 3.6-0.6 6.8-0.1 10.6 1.2 9.6 1.6 19.1 1.9 28.8q0 1.7 0.1 3.4c0 1.4 0 1.4 0 3 0.1 2.7 0.1 2.7 0.7 5.1 0.7 3.4 0.6 6.8 0.6 10.3 0 1.1 0 1.1 0 2.2q0 2.2 0 4.5 0 3.5 0 7 0 2.2 0 4.5 0 1 0 2.1c0 4.9 0 4.9-1.1 6q-0.2 3.4-0.3 6.8 0 1-0.1 2.1-0.1 3.3-0.2 6.7 0 2.2-0.1 4.4c-0.2 8.1-0.2 8.1-0.3 16.3 0 3.1-0.2 5.4-1 8.3-1 3.9-1.2 7.3-1 11.4q-1 0-2 0 0.6 1.2 1.2 2.5c0.9 3.9 0.2 5.5-1.4 9.1-1.3 3.9-1.4 7.9-1.6 12-0.2 2.4-0.2 2.4-1.2 3.4q-0.5 4.1-0.9 8.2c-0.8 7.8-2.2 15.2-4.1 22.8q-0.6 2.7-1.2 5.3-0.4 1.8-0.8 3.7-0.5 0-1 0c-0.2-7.3 0.3-13.9 2-21q-1 0-2 0 0-1.5 0-3c-1.9 3-3.4 5.5-4 9q-1 0-2 0-0.4 1.3-0.8 2.6c-1.2 3.4-2.7 6.5-4.3 9.8q-0.8 1.6-1.7 3.2c-0.6 1.2-0.6 1.2-1.2 2.4q-1 0-2 0-0.2 1.4-0.4 2.9c-0.6 3.1-0.6 3.1-1.6 5.1q-1 0-2 0c-0.3 1.2-0.3 1.2-0.6 2.5-1.2 3-2.2 4.7-4.2 7.2-3 3.9-5.3 8-7.6 12.4-3.9 7.1-8.4 13.8-13.3 20.2-1.2 1.6-2.2 3.1-3.3 4.7q-1 0-2 0-0.5 1.2-0.9 2.4c-1.1 2.6-1.1 2.6-2.1 4.6q-1 0-2 0-0.4 1.3-0.7 2.7c-1.4 3.5-2.9 5.6-5.4 8.5-1.2 1.4-1.2 1.4-2.4 2.9q-1.2 1.4-2.5 2.9-2.2 2.7-4.4 5.4-1.1 1.3-2.3 2.7-2.5 3.1-4.9 6.3c-0.7 0.9-0.7 0.9-1.3 1.8q-1.3 1.7-2.6 3.4c-2.5 3.4-5.2 5.8-8.5 8.4q-2.3 2.7-4.5 5.4c-3 3.8-6.1 7.3-9.5 10.6-5 4.9-5 4.9-9.6 10.1-4.3 5.2-9.2 9.5-14.2 13.9-2.2 2-2.2 2-4.4 4.2-1.8 1.8-1.8 1.8-3.8 1.8q-0.5 1.5-1 3c-4.5 4-4.5 4-7 4q-0.4 0.9-0.8 1.8c-1.2 2.2-2.3 3.4-4.2 5q-0.9 0.8-1.9 1.6-0.9 0.7-1.8 1.5-1 0.8-1.9 1.6-1.8 1.5-3.6 3-1.8 1.5-3.5 3c-4.1 3.5-4.1 3.5-6.3 3.5q0 1 0 2c-5.4 4-5.4 4-8 4q0 1 0 2c-3.5 3-3.5 3-6 3q0 1 0 2c-4.4 3-4.4 3-7 3q-0.5 1.5-1 3c-1.8 1.4-1.8 1.4-3.9 2.7-1.1 0.6-1.1 0.6-2.2 1.3-1.9 1-1.9 1-3.9 1q0 1 0 2-2.6 1.7-5.4 3.2c-5.1 2.9-9.9 6-14.6 9.5-2 1.3-2 1.3-4 1.3q0 1 0 2-1.1 0.6-2.2 1.1c-6.8 3.6-13.4 7.4-20.1 11.3-11.8 6.9-23.8 13.4-36.2 19.1q-4.8 2.1-9.4 4.5-1 0.5-1.9 1-2.7 1.3-5.3 2.7c-2.9 1.3-2.9 1.3-6.9 1.3q0 1 0 2-1.4 0.5-2.9 1-2 0.7-4.1 1.4-1.1 0.4-2.3 0.8-6.6 2.4-13.2 4.9c-15 5.8-30.1 10.6-45.5 14.9q-1.5 0.4-3.1 0.9-1.4 0.4-2.9 0.8c-1.3 0.4-1.3 0.4-2.6 0.8-2.4 0.5-2.4 0.5-6.4 0.5q0 2 0 4-1 0-2 0-0.5 1.5-1 3-0.1-2.5 0-5 0.5-0.5 1-1-0.7-1.7-1.4-3.4c-2.9-7.8-4.3-16-5.9-24.2q-0.7-3.4-1.4-6.8c-6.5-31-6.6-64.2-2.3-95.6q0.1-1 0.3-2.1 2.2-16.4 4.7-32.9 0.5 0 1 0 0.2-1.1 0.4-2.2c0.7-4.2 1.4-8.3 2.7-12.4 1.1-4.2 1.1-8.1 0.9-12.4q0.5 1 1 2 1 0 2 0c0-3 0-5.9 0-9q1-0.5 2-1c0.9-2.2 0.9-2.2 1.6-4.8q0.4-1.2 0.8-2.6c0.7-2.6 0.7-2.6 0.5-5.2 0.1-3 1-3.4 3.1-5.4 0.9-2.4 0.9-2.4 1.6-4.9 0.6-2.6 1.3-4.9 2.5-7.2 1.3-2.7 1-5 0.9-7.9q1.5 0.5 3 1-0.1-1.9-0.2-3.8c0-4 0-4 1.6-5.9q0.8-0.6 1.6-1.3c1.9-3.8 2.2-6.8 2-11q2.5-1 5-2c0.3-2.6 0.7-5.3 1-8q1 0 2 0 1.3-2.9 2.5-5.8 0.7-1.5 1.4-3.2c1.3-3.1 1.3-3.1 1.1-7q1 0 2 0 0.5-1.5 1-3 1 0 2 0 0-2 0-4 1 0 2 0 0.2-1.2 0.4-2.4c0.6-2.6 0.6-2.6 1.6-4.6q1 0 2 0 0.4-1.2 0.8-2.4c1.5-4.3 3.3-8.5 5.2-12.6q1 0 2 0 0.2-1.1 0.4-2.2c0.8-3.9 0.8-3.9 1.6-7.8q1.5-0.5 3-1 0.5-1.5 1-3 1-0.5 2-1-0.1-1.1-0.1-2.3c0.1-2.8 0.7-4.3 2.1-6.7q1 1 2 2 0.5-2.5 1-5 1 0 2 0c0.4-0.9 0.4-0.9 0.8-1.8 1.6-3 3.6-5.5 5.8-8.1 1.6-2.4 2-4.3 2.4-7.1q1.5-0.5 3-1 1.6-3 3-6 1.4-2 3-4 0.8-1.1 1.6-2.3c0.7-0.8 0.7-0.8 1.4-1.7q1 0 2 0 0.1-0.8 0.3-1.7c0.9-2.9 2.4-5 4.1-7.6q1-1.3 1.9-2.7c0.8-1 0.8-1 1.7-2q1 0 2 0 0.5-3 1-6 1.5-0.5 3-1 1-1.5 2-3 1 0 2 0 0.2-0.9 0.4-1.8c0.6-2.2 0.6-2.2 2.6-5.2q-1.5-0.5-3-1 1.5 0 3 0 0.5-1.5 1-3 0.9-0.4 1.8-0.8c3.9-2.2 6.3-6.3 8.3-10.4 1.2-2.4 2.9-4 4.9-5.8q1 0 2 0 0.5-2 1-4 1 0 2 0c0.4-0.8 0.4-0.8 0.8-1.6 1.6-3.2 3.4-6.3 5.2-9.4q1.5 0 3 0c0.4-0.8 0.4-0.8 0.8-1.7 1.3-2.5 2.6-4.9 4.2-7.3q1 0 2 0-0.5-2-1-4 1.1-0.6 2.3-1.3c2.7-1.7 3.9-3.1 5.7-5.7q2.5-2.5 5-5 1-1.5 2-3 1 0 2 0 0.1-0.8 0.2-1.7c1.1-3.3 3.3-4.9 5.8-7.3q2.4-2.7 4.8-5.5 1.1-1.4 2.3-2.8c1.9-2.7 2.5-4.5 2.9-7.7q1.5 0 3 0c2.2-3 3.8-5.5 5-9q1.5 0.5 3 1 0.4-1.2 0.8-2.4 0.6-1.3 1.2-2.6 1.5-0.5 3-1 0.5-1.5 1-3c1.4-2.2 1.4-2.2 3-4q1 0 2 0 0.5-1.5 1-3 0.5-1.5 1-3 1.5-0.5 3-1 1.4-2 2.8-4.1c1.5-2.3 3.1-4.6 4.8-6.8q0.9-1.1 1.8-2.3 0.8-0.9 1.6-1.8 1 0 2 0c0.4-0.8 0.4-0.8 0.8-1.6 1.5-3 3.2-5.7 5.2-8.4q1 0 2 0 1-2.5 2-5 1 0 2 0 0.4-1.2 0.9-2.4c1.1-2.6 1.1-2.6 3.1-4.6q0.5-1 1-2 0.7-0.6 1.3-1.3c2.8-2.9 4.9-6.3 7.1-9.6q0.8-1 1.6-2.1 1 0 2 0 0.2-0.9 0.4-1.8c0.6-2.2 1.5-4.1 2.6-6.2q1.5 0 3 0 0.4-1 0.8-2.1 2.1-4.9 4.2-9.9 1 0 2 0 0.5-1.5 1-3 1-0.5 2-1c2.4-3.4 3-4.7 3-9q1-0.3 1.9-0.7c2.4-1.2 2.4-1.2 2.9-3.9q0.1-1.2 0.2-2.4 1 0 2 0c2.3-3.4 4-7 5.8-10.7 1.2-2.3 1.2-2.3 3.2-4.3 0.6-2.6 0.6-2.6 1-5q1.5 0 3 0c4.7-8.2 4.7-8.2 8-17q1 0 2 0 0-1.5 0-3 1 0 2 0 0.2-0.9 0.4-1.8c0.6-2.1 1.3-4 2.3-6 0.5-1.1 0.5-1.1 1-2.2q0.6-1.1 1.1-2.3 0.5-1 1.1-2.1 3-6.5 6.3-12.9c0.9-1.9 0.9-1.9 1.8-4.7q1 0 2 0c0.3-2.6 0.7-5.3 1-8q1 0 2 0-0.3-0.9-0.6-1.8c-0.5-2.8 0.2-3.7 1.6-6.2 2.8-5.9 5.1-11.8 7-18q-1 0-2 0 0.5-3 1-6 1 1 2 2 1-2.8 2-5.6 0.6-1.6 1.1-3.2c0.9-3.2 1.1-5.9 0.9-9.2q1 0 2 0 0.5-1.5 1-3z"/>
</svg>
